<svg viewBox="0 0 349 556" xmlns="http://www.w3.org/2000/svg" xmlns:serif="http://www.serif.com/" fill-rule="evenodd" clip-rule="evenodd" stroke-linejoin="round" stroke-miterlimit="1.414"><path d="M38.735 301.866s-9.347 68.456 23.76 110.823c33.107 42.367 56.432 72.49 100.429 70.719 48.316-1.945 63.953-37.426 75.91-53.972 11.957-16.546 45.275-94.063 47.394-104.905 2.12-10.843 5.919-80.044 18.92-105.954 7.317-14.582 14.806-102.633-26.895-143.873-41.702-41.239-98.595-51.834-122.802-49.85-26.647 2.183-93.45 12.227-126.198 75.209-32.749 62.983-14.324 102.538-14.324 102.538 12.849 1.802 28.71 26.492 23.806 99.265z" fill="#eeced7"/><g fill="#e7c0cb"><path serif:id="Nose Side Shadow" d="M144.929 193.235s36.209 3.94 37.223 16.873c1.015 12.934 4.355 41.955-1.101 56.905-5.457 14.95-5.588 16.132-9.356 13.864-3.767-2.269-5.631-7.808-10.115-7.297-4.483.512-21.862-1.159-15.504 14.871 2.241 3.923 17.226 3.153 25.533 7.655 8.306 4.501 9.454 10.624 9.454 10.624s-49.805.317-80.29 23.369c0 0 12.397-34.796 33.442-50.366s23.084-9.413 26.253-24.46c3.17-15.047.449-16.229-4.964-14.71-5.413 1.519-7.65 4.648-7.65 4.648s-3.809-7.08 12.362-18.586c0 0-11.302-12.854-15.287-33.39z"/><path serif:id="Right Cheek Shadow" d="M223.635 278.196s1.537 16.916 11.215 26.091c9.677 9.175 12.022 11.767 13.335 16.606 0 0 7.976-21.752-24.55-42.697z"/><path serif:id="Left Cheek Shadow" d="M66.929 196.812s-24.366 20.128-14.643 67.555c9.722 47.428 20.866 40.939 26.998 54.055 6.132 13.116 6.959 20.351 6.959 20.351s3.785-49.057-7.107-71.435c-10.893-22.378 1.381-29.128 2.364-33.352 3.475-14.933-14.84-27.124-14.571-37.174z"/><path serif:id="Nose Under shadow" d="M189.144 304.769s10.046-6.272 21.764-5.499c11.718.772 8.812-7.822-.17-7.197-8.982.626-6.408 3.817-13.894 2.339-7.486-1.477-8.491-1.284-9.419 4.565-.59 3.715 1.719 5.792 1.719 5.792z"/></g><path serif:id="Beard Shadows" d="M72.24 116.535s-13.79 36.298-5.738 73.865c0 0-20.891 24.009-18.999 46.481 1.892 22.473 2.428 51.664 18.885 73.425 16.457 21.762 17.641 29.753 21.874 37.858 0 0 11.417-12.994 18.818-33.964 9.121-2.388 24.407-3.269 36.893-7.424 12.486-4.156 14.736-7.028 29.198-2.843 4.303 5.854 7.457 18.994 3.418 23.346-5.059-.479-20.927-1.9-20.927-1.9-16.253 3.618-18.385 3.298-26.68 3.844-7.49.493-12.651.452-17.827 8.344-5.176 7.892-8.277 24.579-8.277 24.579s-1.615 9.027 1.942 19.166c3.556 10.139-.848 43.329 19.361 34.593 20.208-8.735 25.309-22.139 25.346-21.812.038.326 10.361 10.589 36.878 4.668 0 0 25.611 44.716 36.48 5.735 1.904-26.497 4.58-63.308 4.24-66.282-.339-2.974-11.005-10.738-39.16-10.895 0 0-3.815-20.838 10.616-23.156 0 0 15.091.408 21.708 3.522 3.652 1.719 13.523 5.44 18.869 13.756 9.653 28.202-.444 37.297.001 44.233.446 6.935 37.986-38.762 44.254-63.137 6.267-24.374 5.137-48.093 6.312-73.893 1.175-25.799 5.072-62.49 4.5-67.498-.572-5.008-10.097-47.838-12.266-54.649-1.312-4.121 8.759-13.269 17.756 3.29 5.87 10.804 11.981 43.275 11.766 58.232 1.997 45.856-11.025 59.635-15.085 81.217-4.06 21.582-.974 28.545-2.396 66.477 0 0-3.849 35.407-5.558 47.554-1.71 12.147-11.686 39.533-14.203 49.744-2.516 10.21-8.035 81.83-20.422 97.213-12.387 15.383-44.923 41.414-76.245 44.297-31.322 2.883-62.607-6.07-84.897-23.073-55.723-65.696-58.226-95.979-65.85-121.458-5.519-18.445-6.973-52.692 1.501-69.525 8.474-16.833 8.393-27.846 9.334-37.95.777-8.331 1.531-48.912-.869-61.461-2.364-12.359-9.128-37.925-24.257-38.898 0 0-2.116-6.815-2.899-25.385-.782-18.57 6.067-62.479 14.028-64.727 7.961-2.248 48.577 4.491 48.577 4.491z" fill="#5b4343"/><path serif:id="Beard Highlight" d="M50.148 263.673l-.716 25.541 5.243 6.316.87 58.876 10.556 13.396.107 41.534 6.675 37.211 21.267-34.624 4.326 23.946 17.501-1.139-5.823 54.967 6.669 34.896 11.008-30.175 26.035-36.167 7.457 25.603 1.903 24.274 16.768-17.972 2.212 29.759 14.652 15.125 2.474-23.061 5.923-50.947-14.784-26.659 27.364 9.97 6.232 19.652 1.694 22.627 7.226-10.95-1.735-23.921 10.891 4.267 5.61 17.968 1.745-25.378-8.136-27.974-7.096-4.925 10.776-12.009 20.023 1.681-12.763-12.463 8.335-5.67-5.875-7.379 5.673-7.883 5.716 9.909-2.044-17.897 7.9-5.502-1.995-17.814 8.919-15.578 4.386-22.556s-21.417 48.436-44.032 63.909l2.25 7.59-7.161 12.13 1.88 14.262-10.52 15.872 2.97 7.905-14.321 3.227-14.321-11.883-12.294-22.411-7.406 6.686-4.985-5.459-8.312 6.434-5.196-7.675-5.709 4.158-5.123-8.085-9.84 15.817-12.071 8.433-19.696 8.807-4.939-20.25-4.193-22.811-10.319-9.114-1.832-21.401s-5.282-20.338-23.859-41.537c-13.931-23.432-14.14-43.479-14.14-43.479z" fill="#b19074"/><g serif:id="Moustache Highlight" fill="#b19074"><path d="M98.311 341.075l1.437-18.775 5.441-4.47 3.811-7.271 9.197.11 6.084-3.833 8.049 1.409 13.109-6.953 4.875 2.163 11.716-3.197 7.294 2.36 4.989-.947-3.638 9.787.922 6.033-4.695-5.457-2.418 10.246-2.484-9.496.541-2.981-3.411 6.945 1.039 2.65-6.734-5.305 1.102 4.843-3.6-4.461-1.585 7.713-5.943-6.562-3.211 6.86-2.153 3.836-.558-6.019-3.683 6.667-2.885-6.533.327 6.924-6.229-5.764-.455 3.709-5.608-1.099-2.988 5.49-4.478-3.594-7.569 10.663-.706 6.578-1.833-6.281-3.069 4.012zM190.282 306.005l-1.99 6.472 5.655 4.276 3.115-2.74 5.119 7.429 3.449 1.954 4.835-5.425 3.708 7.672 4.614-3.234 3.671 7.32 1.893-6.102 2.093-3.842 1.488 3.922-.319 6.23 5.597-3.449-3.799 7.813 3.135 5.93 3.668-6.046-1.353 11.62 5.776-3.73-.934 12.197 3.657-4.048 1.061-10.886-1.482-8.556-2.355-5.136-.659-8.367-4.43-1.457-3.244-5.294-4.537.065-5.549-3.855-2.805.675-2.086-2.531-4.022-1.086-1.348-2.34-6.166 1.365-4.49-.627-2.654 1.664-4.296-.33-4.016 2.477z"/></g><path d="M114.565 333.187s51.498-17.84 64.329-.206c0 0 20.285-14.365 54.161 8.023-15.361 15.277-19.336 28.222-27.372 36.966-12.792 10.42-42.242 14.422-64.987-.165a96.935 96.935 0 0 1-.817-.509c-1.76-1.568-3.831-4.273-4.107-4.882-18.39-28.859-21.207-39.227-21.207-39.227zm109.902 9.555c-.289 6.676-10.012 12.989-22.682 22.493-14.857 11.014-32.584 8.568-40.128 5.493-9.677-3.643-14.766-2.486-37.728-26.238-3.772-6.708-3.177-8.016-3.177-8.016s39.248-6.122 56.941 3.615c28.579-4.331 37.868-.634 46.774 2.653z" fill="#c98c8c"/><clipPath id="a"><path serif:id="Inner Mouth" d="M224.467 342.742c-.289 6.676-10.012 12.989-22.682 22.493-14.857 11.014-32.584 8.568-40.128 5.493-9.677-3.643-14.766-2.486-37.728-26.238-3.887-7.513-3.177-8.016-3.177-8.016s39.248-6.122 56.941 3.615c28.579-4.331 37.868-.634 46.774 2.653z"/></clipPath><g clip-path="url(#a)"><path d="M114.148 329.537l110.162 11.826 1.104 9.676-26.271 25.25-48.703.32-22.299-23.01-12.813-13.732-1.18-10.33z" fill="#874848"/></g><clipPath id="b"><path d="M224.467 342.742c-.289 6.676-10.012 12.989-22.682 22.493-14.857 11.014-32.584 8.568-40.128 5.493-9.677-3.643-14.766-2.486-37.728-26.238-3.887-7.513-3.177-8.016-3.177-8.016s39.248-6.122 56.941 3.615c28.579-4.331 37.868-.634 46.774 2.653z"/></clipPath><g clip-path="url(#b)"><path d="M106.492 340.927s79.22 24.833 142.232.842l-9.39-10.32-129.052-4.497-3.79 13.975z" fill="#fff"/></g><g fill="#5b4343"><path serif:id="Right Eyebrow" d="M278.07 193.142c-5.552-4.414-17.847-4.774-30.03-4.906-12.071-.132-31.855-2.221-31.153 3.913.201 1.751 5.745 13.23 27.157 11.456 19.614-1.624 27.108 2.332 33.672 6.603 4.001 2.603 8.693 9.181 10.991 12.688 2.298 3.506 1.965 6.63 1.965 6.63s1.309-16.167-3.064-22.574a1697.025 1697.025 0 0 0-9.538-13.81z"/><path serif:id="Left Eyebrow" d="M165.608 187.31c4.981-5.547-2.349-8.982-23.57-11.74-19.636-2.338-27.356-3.373-34.128-2.214-6.772 1.158-9.461 3.247-14.314 7.944-7.781 5.613-15.731 6.205-20.873 12.661-1.279 5.191 5.211 1.653 12.861-.68 9.764-4.998 26.326-5.603 26.326-5.603 8.283-1.779 25.387 1.333 33.621 3.882 8.233 2.549 19.569-1.946 20.077-4.25z"/></g><path d="M6.254 183.682s12.096-16.951 12.893-28.569c0 0 2.232 15.555 4.498 17.685 0 0 5.182-19.955 7.368-21.693 0 0-1.666 19.933-1.417 22.11l3.082-6.266s.87 5.931 2.172 7.756c0 0-1.961-10.369 3.898-19.829 5.859-9.459 1.711-13.547 1.711-13.547s6.793 6.195 1.868 18.312c-4.926 12.118.3 20.441.3 20.441s-.313-4.397.675-5.805c0 0 3.351 9.285 5.102 12.049 1.752 2.765 3.225 7.647 3.225 7.647s1.008-10.892 2.521-12.132c0 0 .404 2.112 1.597 4.03 1.193 1.918 4.626 5.866 4.626 5.866s-3.742-11.476-2.066-19.044c0 0 5.205 16.933 6.597 18.456 0 0-2.251-15.756-.844-20.617 1.408-4.862 5.004-13.805 2.818-19.859-2.186-6.053 11.258-31.486 11.258-31.486s4.373-13.33 4.049-14.927c0 0 6.74 11.875-.571 32.905-7.31 21.029-2.979 24.454-3.221 28.825-.241 4.371-3.859 20.07-3.859 20.07s7.661-10.303 8.258-16.61c0 0 3.164 18.653 4.419 21.865 0 0 .139-9.491 1.015-12.896.876-3.406 1.793-16.594.288-21.119 0 0 1.678-14.121 3.47-14.735 1.792-.615 6.887 7.392 14.927 4.048 0 0-13.216 42.118-12.962 57.149 0 0 6.009-14.377 9.113-27.77 3.104-13.392 6.627-20.938 18.511-40.359 7.449-10.24 17.87-13.557 17.87-13.557s-14.998 32.066-24.562 46.662l-.787 9.544 5.746-11.063.609 10.458s2.344-13.188 6.991-16.847c0 0-1.196 11.836 3.151 17.632 0 0-3.407-22.037 12.748-32.165 16.156-10.128 72.653-39.27 85.656-50.943 0 0 14.637-11.756 15.36-13.848 0 0 .866 6.719-9.438 16.019 0 0 4.394.908 9.19-.331 4.797-1.238 11.276 37.424-6.214 66.504 0 0 26.607-21.27 37.093-39.482 0 0-7.1 29.017-12.002 36.531 0 0 21.592-31.316 22.398-36.351 0 0 3.172 11.647 3.053 14.547 0 0 8.203 16.538 4.526 42.685 0 0 3.468 27.566 3.031 31.101-.438 3.536 6.003 7.54 6.003 7.54s1.546 7.788.869 10.698c0 0 4.233-10.514 7.309-15.318 0 0-2.885 28.557-.588 32.332 0 0 8.157-46.542 16.204-57.592l1.608 7.025s-.198-16.808 1.392-17.275c0 0 1.896 4.701 3.678 6.75 0 0-1.167-12.929-.807-18.226.36-5.298-2.521-10.046-2.956-13.853 0 0 6.114 8.268 11.787 9.34 5.672 1.072 6.501 3.301 7.993 5.266 0 0-.779-7.827-9.218-14.311s-6.068-16.629-6.068-16.629.644 1.408 5.52 5.904c4.876 4.496 8.954 13.548 8.954 13.548s-7.753-35.003-15.052-37.662c-7.299-2.659-6.059-6.423-6.059-6.423s11.674 2.519 12.669 5.073c0 0 4.281-1.267-10.989-12.701-15.27-11.434-18.819-22.47-20.197-24.363-1.378-1.893-18.709-22.923-27.597-31.9-8.889-8.978-11.191-8.578-11.191-8.578s9.215-.838 9.3-2.557c.085-1.72.259-8.553-9.829-13.192-10.088-4.639-11.088-11.852-12.539-14.58 0 0-9.645 3.057-12.799 3.274-3.153.218-3.658-11.435-6.267-14.319 0 0-9.582 10.131-14.101 8.982-4.519-1.15-19.448-5.838-46.186-6.071-26.738-.232-41.581 12.783-41.488 12.591.094-.192-26.325-1.717-44.165.877-17.839 2.593-23.588 7.381-23.588 7.381s27.58-6.697 36.436-4.565c0 0-20.73 2.814-30.002 10.037A46468.402 46468.402 0 0 0 54.44 44.5s14.902-9.346 21.862-9.138c0 0-18.091 7.493-24.987 15.271-6.895 7.777-18.768 20.142-24.986 27.435-6.218 7.293-11.206 19.753-12.361 32.051-1.155 12.299 5.839 16.572-9.615 22.166L0 133.218l5.049 4.3-4.396 4.09 5.831-.013-3.416 3.981 5.828-1.202-2.125 5.883 5.458-2.662s-.831 12.685-11.18 17.047c0 0 8.125 2.232 8.141 2.371.016.139 2.882 1.443-2.936 16.669z" fill="#e5ddb1"/><g serif:id="Left Eye"><clipPath id="c"><path serif:id="Left Eye White" d="M156.929 225.01a74.478 74.478 0 0 1-.516-.162l-7.472-5.979c-11.987-18.98-52.406-4.192-58.178-1.958 2.872 1.646 6.059 4.843 18.468 11.447 18.523 9.858 45.201-2.18 47.698-3.348z"/></clipPath><g clip-path="url(#c)"><path d="M83.079 216.209l28.971-11.483 29.5-1.046 12.605 8.645 9.534 12.14-20.438 14.552-27.362-4.302-17.092-10.882-15.718-7.624z" fill="#fff"/></g><path serif:id="Left Cornea" d="M125.521 208.066c6.515-.743 12.407 3.941 13.151 10.455.744 6.514-3.941 12.407-10.455 13.151-6.514.743-12.407-3.941-13.151-10.455-.743-6.514 3.941-12.407 10.455-13.151z" fill="#5a9fc0"/><path serif:id="Left Pupil" d="M126.462 214.421a5.642 5.642 0 0 1 6.242 4.963 5.642 5.642 0 0 1-4.963 6.243 5.642 5.642 0 0 1-6.242-4.963 5.642 5.642 0 0 1 4.963-6.243z" fill="#2b5780"/><path serif:id="Left Eyelids" d="M85.357 219.3l-4.347-2.17.586-4.37c32.692-21.328 51.746-11.457 69.396-7.055 10.391 10.421 7.597 12.542 14.965 17.893.77 2.385-.595 3.074-3.218 2.79-2.165 1.007-5.569 1.698-5.569 1.698-18.031 9.364-25.154 6.316-36.61 6.795-8.912.373-27.422-10.662-35.203-15.581zm71.572 5.71a74.478 74.478 0 0 1-.516-.162l-7.472-5.979c-11.987-18.98-52.406-4.192-58.178-1.958 2.872 1.646 6.059 4.843 18.468 11.447 18.523 9.858 45.201-2.18 47.698-3.348z" fill="#e7c0cb"/></g><g serif:id="Right Eye"><clipPath id="d"><path serif:id="Right Eye White" d="M215.357 231.047l6.225-3.522s13.326-9.137 30.547-4.41c6.905 1.895 10.548 4.2 21.451 11.83 0 0 1.795 2.096 4.98 2.732-16.239 1.385-23.54 15.967-52.048 1.281-5.125-2.64-11.954-8.157-11.155-7.911z"/></clipPath><g clip-path="url(#d)"><path d="M211.06 232.697l10.934-13.074 27.13-4.312 15.002 7.284 15.919 13.037 5.615 2.927-12.528 4.834-13.225 4.552-19.984 1.909-16.473-6.98-12.39-10.177z" fill="#fff"/></g><g serif:id="Eye"><path serif:id="Right Cornea" d="M242.26 220.594c6.514-.744 12.406 3.941 13.15 10.455.744 6.514-3.941 12.406-10.455 13.15-6.514.744-12.406-3.941-13.15-10.455-.744-6.514 3.941-12.406 10.455-13.15z" fill="#5a9fc0"/><path serif:id="Right Pupil" d="M243.016 227.27a5.642 5.642 0 0 1 6.242 4.963 5.642 5.642 0 0 1-4.963 6.242 5.641 5.641 0 0 1-6.242-4.963 5.64 5.64 0 0 1 4.963-6.242z" fill="#2b5780"/></g><path serif:id="Right Eyelid" d="M285.194 237.414s-14.538 9.573-30.207 11.362c-15.668 1.789-25.929-3.132-30.808-5.957-2.667-1.544-9.463-7.722-10.951-8.914-1.489-1.191-5.877-3.576-5.847-4.795.053-2.167 5.003-2.752 9.707-8.577 6.638-2.841 16.56-9.86 34.963-4.047 18.402 5.813 16.784 7.752 24.821 13.87 2.259 4.005 8.322 7.058 8.322 7.058zm-69.837-6.367l6.225-3.522s13.326-9.137 30.547-4.41c6.905 1.895 10.548 4.2 21.451 11.83 0 0 1.795 2.096 4.98 2.732-16.239 1.385-23.54 15.967-52.048 1.281-5.125-2.64-11.954-8.157-11.155-7.911z" fill="#e7c0cb"/></g><g serif:id="Left Ear"><path serif:id="Left Ear" d="M37.382 230.197s-2.739-30.207-16.104-29.333c-13.366.874-16.401 14.358-13.177 29.316 3.223 14.958 3.507 11.844 3.687 39.058.179 27.214 18.646 29.566 21.905 29.471 3.259-.095 10.216-2.755 8.508-12.469-2.105-5.808-2.176-14.675-1.158-24.659-.483-18.885-7.71-15.945-3.661-31.384z" fill="#eeced7"/><path serif:id="Left Ear Shadow" d="M27.478 225.48s-4.35-15.678-12.559-13.786c-8.209 1.893-3.318 16.199-2.591 20.491.726 4.292 3.563 25.135 2.984 29.029-.578 3.894-3.718 14.533 5.687 22.263 9.405 7.73 5.593-4.155 4.15-4.92-1.444-.764-6.132-7.445-5.464-7.843.668-.397 7.608-3.65 10.104-1.116 2.495 2.534 5.98 6.952 7.087 4.004 4.37-11.638-13.131-7.65-13.976-9.892-.845-2.241-4.723-27.359-3.949-31.744.774-4.384-.8-15.343 8.527-6.486z" fill="#e0b1bf"/></g><g serif:id="Right Ear"><path serif:id="Right Ear" d="M284.745 307.458s-.792 11.19 2.825 10.777c3.616-.413 5.377-5.347 5.955-12.521.578-7.173 8.715-19.002 5.684-33.774 0 0 2.927-4.6 5.319-15.518 1.648-4.739 3.15-12.103 1.284-20.033-1.866-7.929-4.817-11.54-9.057-6.97-4.24 4.57-3.013 8.473-3.013 8.473s2.847 20.393-2.275 35.21c0 0 .881 11.248-6.722 34.356z" fill="#eeced7"/><path serif:id="Right Ear Shadow" d="M297.8 237.413s1.953-4.345 4.289-1.599c2.335 2.745 1.536 15.906.263 20.887-1.273 4.982-7.049 20.882-6.674 24.169.376 3.287-3.529 20.35-3.852 22.003-.323 1.653 3.251-34.628 5.021-36.238 1.769-1.61 4.801-20.751 4.124-22.628-.676-1.877-3.097-6.155-3.171-6.594z" fill="#e0b1bf"/></g></svg>