<svg viewBox="0 0 948 390" xmlns="http://www.w3.org/2000/svg" fill-rule="evenodd" clip-rule="evenodd" stroke-linecap="round" stroke-linejoin="round" stroke-miterlimit="1.5"><path d="M760.117 315.56c-55.174 30.415-137.726 59.629-175.384 68.036-54.7 12.21-377.357-22.266-418.373-27.756-41.015-5.49-140.877-72.364-151.506-94.387C3.978 238.918-.831 130.477 9.361 111.846c12.938-23.651 201.595-74.999 217.527-83.059C242.82 20.728 473.39-1.575 519.687 4.92c46.297 6.494 270.323 62.003 297.435 88.53 6.846 6.698 10.504 62.407 7.602 111.713 2.847 27.635 9.751 61.325 38.363 52.715 15.844-4.767 26.251 10.838 41.75 2.708 12.443-6.526 33.665-22.292 31.91-41.725-1.003-11.103 16.218 16.72 1.46 43.037-14.758 26.318-75.628 65.01-100.724 46.579-22.374-16.431-58.4.457-77.366 7.083z" fill="#fff" stroke="#000" stroke-width="7.5"/></svg>