<svg viewBox="0 0 941 383" xmlns="http://www.w3.org/2000/svg" fill-rule="evenodd" clip-rule="evenodd" stroke-linejoin="round" stroke-miterlimit="1.414"><path d="M756.367 311.81c-55.174 30.415-137.726 59.629-175.384 68.036-54.7 12.21-377.357-22.266-418.373-27.756-41.015-5.49-140.877-72.364-151.506-94.387C.228 235.168-4.581 126.727 5.611 108.096c12.938-23.651 201.595-74.999 217.527-83.059C239.07 16.978 469.64-5.325 515.937 1.17 562.234 7.664 786.26 63.173 813.372 89.7c6.846 6.698 10.504 62.407 7.602 111.713 2.847 27.635 9.751 61.325 38.363 52.715 15.844-4.767 26.251 10.838 41.75 2.708 12.443-6.526 33.665-22.292 31.91-41.725-1.003-11.103 16.218 16.72 1.46 43.037-14.758 26.318-75.628 65.01-100.724 46.579-22.374-16.431-58.4.457-77.366 7.083z" fill="#fff"/><path d="M491.72.001l.991.003.978.005.966.007.952.009.94.012.926.014.913.016.9.018.886.021.872.023.859.025.844.028.83.03.816.032.403.017.399.018.395.018.392.019.387.019.385.021.38.02.377.021.373.022.369.023.366.023.361.024.358.024.354.025.35.025.347.027.342.026.338.028.335.028.33.029.327.029.323.03.318.031.315.031.31.032.307.032.302.033.298.034.295.035.29.035.286.035.281.037.278.037.273.038.551.078.567.083.583.087.598.092.615.096.63.1.645.105.661.109.676.113.691.117.706.122.721.126.735.13.75.134.765.138.778.143.793.146.807.15.821.155.834.158.848.162.861.167.875.17.888.173.901.178.914.182.926.185.94.189.952.192.964.197.976.2.989.203 1.001.208 1.012.21 1.024.215 1.036.218 1.047.221 1.059.225 1.069.228 1.081.231 1.092.235 1.102.239 1.113.241 1.124.245 1.134.248 1.144.252 1.154.254 1.165.258 1.174.261 1.184.264 1.193.267 1.203.271 1.212.273 1.221.276 1.231.279 1.239.283 1.248.285 1.257.288 1.265.291 1.273.293 1.282.297 1.29.299 1.298.302 1.305.305 1.314.308 1.321.31 1.328.313 1.336.315 1.342.318 1.35.321 1.357.323 1.364.326 1.37.328 1.376.33 1.383.333 1.389.336 1.396.338 1.401.34 1.407.342 1.413.345 1.418.347 1.424.349 1.428.351 1.435.354 1.439.356 1.444.357 1.449.36 1.453.362 1.458.364 1.462.366 1.467.368 1.47.37 1.474.372 1.479.374 1.482.376 1.485.377 1.489.379 1.492.381 1.496.383 1.498.385 1.501.386 1.504.388 1.507.389 1.509.391 1.511.393 1.513.394 1.516.396 1.518.398 1.519.398 1.521.401 1.523.401 1.524.403 1.525.405 1.526.406 1.528.407 1.528.408 1.529.41 1.529.41 1.53.412 1.531.414 1.53.414 1.531.415 1.53.417 1.531.418 1.529.418 1.53.42 1.529.42 1.528.422 1.527.422 1.526.424 1.526.424 1.523.425 1.523.426 1.521.426 1.519.428 1.517.428 1.516.428 1.513.43 1.511.43 1.509.431 1.506.431 1.504.432 1.501.432 1.498.433 1.494.433 1.492.434 1.489.434 1.485.435 1.482.435 1.477.435 1.474.436 1.47.435 1.466.437 1.462.436 1.458.436 1.452.437 1.449.437 1.443.437 1.439.437 1.433.437 1.429.437 1.423.437 1.418.437 1.412.437 1.406.437 1.401.436 1.394.437 1.389.437 1.382.436 1.376.436 1.369.436 1.363.435 1.356.435 1.349.435 1.342.435 1.335.434 1.328.433 1.32.434 1.312.432 1.305.432 1.297.432 1.289.431 1.281.431 1.272.43 1.265.429 1.255.429 1.247.428 1.239.427 1.229.426 1.22.426 1.211.425 1.202.424 1.193.423 1.182.422 1.174.421 1.163.421 1.153.419 1.143.418 1.133.418 1.122.416 1.112.415 1.101.414 1.091.413 1.079.412 1.069.41 1.057.409 1.046.408.519.204.516.203.513.203.51.203.507.202.504.202.501.201.498.201.495.201.492.201.489.2.486.2.483.199.48.199.477.199.474.198.47.198.468.197.464.198.461.196.458.197.455.196.451.195.448.195.445.195.442.195.438.194.435.193.432.193.428.193.425.192.421.192.419.191.414.191.412.191.407.19.405.19.401.189.397.189.394.188.39.188.387.187.383.187.38.186.376.186.372.186.369.185.365.184.361.184.358.184.354.183.351.182.346.182.343.182.339.181.335.18.332.18.328.179.323.179.32.179.316.178.313.177.308.177.304.176.301.176.296.175.293.174.288.174.285.174.28.173.277.172.272.172.269.171.264.171.26.17.256.169.252.169.248.168.243.168.24.167.235.167.231.166.226.165.223.165.218.164.214.163.209.163.206.162.201.162.196.161.192.16.188.16.184.159.179.158.174.158.17.157.166.156.161.156.04.04.04.041.04.042.04.043.04.044.039.046.04.046.039.048.079.098.079.103.078.107.078.112.078.116.077.12.077.125.077.128.077.133.076.138.076.141.075.146.076.15.075.154.074.158.074.162.074.166.074.171.073.174.074.179.072.182.073.187.072.19.071.194.072.199.071.202.071.206.07.21.07.214.07.218.069.221.07.225.068.23.069.232.068.237.068.24.067.244.067.248.067.251.066.255.066.259.066.262.065.265.065.27.065.272.064.277.064.28.064.283.063.287.063.29.063.293.062.297.062.301.061.304.061.307.061.31.06.314.06.317.06.32.059.323.059.327.058.33.059.333.057.336.058.34.057.342.056.346.057.348.056.352.055.355.055.358.055.36.054.364.054.367.054.37.053.372.053.376.052.378.053.381.051.384.051.387.051.39.101.788.099.798.097.81.096.82.094.831.092.841.091.851.09.861.087.871.086.881.084.89.083.9.08.909.079.918.078.927.076.936.073.944.073.953.07.961.069.969.067.977.065.985.063.992.061 1 .06 1.007.058 1.015.056 1.021.054 1.029.052 1.035.051 1.041.048 1.048.047 1.055.045 1.06.043 1.066.041 1.072.039 1.077.037 1.083.035 1.088.034 1.093.031 1.099.029 1.103.028 1.107.025 1.112.023 1.117.022 1.12.019 1.125.017 1.128.016 1.132.013 1.136.011 1.139.009 1.142.007 1.145.005 1.148.003 1.151.001 1.153-.002 1.156-.003 1.158-.006 1.16-.007 1.162-.01 1.164-.012 1.166-.015 1.167-.016 1.168-.019 1.169-.02 1.17-.023 1.172-.026 1.172-.027 1.172-.03 1.173-.032 1.172-.034 1.173-.036 1.173-.039 1.173-.041 1.172-.044 1.171-.045 1.171-.048 1.17-.05 1.169-.053 1.167-.055 1.166-.057 1.165-.06 1.162-.062 1.161-.064 1.159-.067 1.157.067.649.069.651.071.653.072.654.074.656.076.658.077.659.079.661.082.661.083.663.085.663.087.664.089.665.092.665.093.665.096.666.098.665.101.665.103.665.105.665.108.664.11.664.113.662.116.662.118.66.121.659.061.33.063.328.063.329.063.328.065.327.065.327.066.327.067.326.067.326.068.325.069.325.07.324.07.324.071.323.072.322.073.322.074.321.074.321.075.32.077.319.076.319.078.318.079.317.079.316.08.316.081.315.082.314.083.313.084.313.085.311.085.311.086.31.088.309.088.308.089.307.09.306.091.305.092.304.093.304.093.302.095.301.096.3.097.299.097.298.099.297.099.296.101.294.101.293.103.293.104.291.104.29.106.288.107.288.107.286.109.284.11.284.11.282.112.281.113.28.114.278.115.276.117.276.117.274.118.272.12.271.12.27.122.268.123.267.124.265.125.263.126.262.127.261.129.259.13.257.131.256.132.253.133.253.134.25.136.249.137.248.138.245.139.244.14.242.142.24.143.238.144.237.145.235.147.233.148.231.149.229.15.227.152.226.153.223.154.221.155.22.157.217.158.216.16.213.161.212.162.209.163.207.165.206.166.203.167.201.169.199.17.196.172.195.173.192.174.19.176.188.177.186.178.183.18.181.181.179.183.176.184.174.186.172.187.169.188.167.19.165.191.162.193.16.195.157.195.155.198.152.198.15.2.148.202.144.203.143.205.139.103.069.103.068.104.068.104.067.105.066.105.065.105.065.105.065.106.063.107.063.107.062.107.062.107.061.108.06.109.059.108.059.11.059.109.057.11.057.11.056.111.055.111.055.112.054.112.053.112.053.113.052.113.051.113.051.114.05.114.049.115.048.115.048.116.047.116.046.116.045.117.045.117.044.118.044.118.042.118.042.119.041.119.041.12.039.12.039.12.038.121.038.121.037.122.035.122.036.123.034.122.034.124.033.124.032.124.031.125.031.125.03.125.029.126.028.126.028.127.026.127.026.128.026.128.024.128.024.129.023.13.022.129.021.131.02.13.02.131.019.132.018.132.017.132.017.133.016.133.014.134.014.134.014.135.012.135.012.135.011.136.01.136.009.137.008.138.008.137.006.138.006.139.005.139.004.139.004.14.002.141.002H850.988l.142-.002.142-.003.144-.003.143-.005.144-.005.145-.006.145-.007.145-.007.146-.009.146-.01.147-.01.147-.011.148-.012.148-.013.149-.014.149-.015.149-.016.15-.016.151-.018.151-.018.151-.019.152-.02.153-.021.153-.022.153-.023.154-.024.154-.025.155-.025.155-.027.156-.027.156-.028.157-.029.157-.031.157-.031.158-.032.159-.033.159-.033.16-.035.16-.036.16-.036.161-.038.162-.039.162-.039.162-.04.163-.042.164-.042.164-.043.164-.045.165-.045.165-.046.166-.047.167-.048.167-.049.167-.05.185-.055.185-.053.185-.051.184-.05.183-.047.183-.046.183-.044.182-.042.181-.041.181-.039.181-.037.18-.036.18-.033.179-.032.179-.031.179-.029.178-.027.177-.026.177-.024.177-.022.176-.021.176-.02.175-.018.175-.016.175-.015.174-.013.174-.012.173-.011.173-.009.173-.008.172-.006.172-.005.172-.003.171-.003.17-.001.171.001.17.001.169.003.17.005.169.005.168.007.169.008.167.009.168.01.167.012.167.013.167.013.166.015.166.016.166.017.165.019.165.019.165.02.164.022.164.022.164.023.164.025.163.025.163.026.163.027.162.028.162.029.162.03.162.031.161.032.161.032.161.034.161.034.16.034.161.036.159.037.16.037.16.038.159.038.318.08.317.082.316.084.315.087.315.089.314.092.313.093.313.095.312.097.311.099.311.1.31.102.31.103.309.104.309.105.308.106.308.107.615.215.613.217.613.218.612.217.611.216.611.213.306.105.305.105.306.103.306.102.306.101.306.099.306.097.306.096.307.094.307.092.307.09.307.087.308.085.308.083.309.08.309.077.155.037.155.037.155.036.155.036.155.034.155.034.156.033.156.032.156.031.156.03.156.03.156.028.156.028.157.026.157.026.157.025.157.024.157.023.158.021.158.021.158.02.158.019.158.017.159.017.158.016.159.014.159.013.16.012.159.011.16.01.16.008.161.008.16.006.161.005.161.003.161.003.162.001.162-.001.162-.001.162-.003.163-.004.163-.006.163-.007.163-.009.164-.009.164-.012.164-.012.165-.015.165-.015.165-.017.166-.019.166-.02.166-.022.166-.023.167-.025.167-.027.168-.028.167-.029.168-.032.169-.033.169-.034.169-.037.169-.038.17-.04.171-.041.17-.043.171-.045.171-.047.172-.049.172-.05.173-.052.173-.054.173-.056.174-.058.174-.059.174-.062.175-.063.175-.066.176-.067.176-.07.177-.071.176-.073.178-.076.178-.077.178-.079.179-.082.179-.083.179-.086.18-.088.181-.09.181-.092.181-.094.293-.155.297-.158.299-.161.302-.165.306-.168.308-.171.31-.175.313-.178.316-.181.318-.184.321-.188.322-.19.325-.194.327-.198.328-.2.331-.204.332-.206.334-.21.336-.213.337-.216.338-.219.34-.222.341-.225.342-.228.343-.231.344-.234.345-.237.346-.24.346-.243.347-.246.347-.248.348-.252.348-.255.349-.257.348-.26.349-.263.348-.266.349-.269.348-.271.347-.274.348-.277.346-.28.347-.282.345-.285.345-.288.344-.29.343-.293.341-.296.341-.298.34-.301.338-.304.336-.306.336-.308.333-.312.166-.156.166-.157.165-.158.165-.159.165-.159.164-.159.163-.16.163-.161.162-.162.162-.162.161-.163.161-.163.16-.164.16-.165.159-.165.159-.165.157-.167.158-.167.156-.167.156-.168.156-.169.154-.169.154-.17.154-.171.152-.171.152-.172.151-.172.151-.173.149-.173.149-.174.149-.174.147-.175.147-.176.146-.176.145-.177.144-.177.143-.178.143-.179.141-.179.141-.179.14-.181.139-.18.138-.181.138-.182.136-.183.135-.182.135-.184.133-.184.133-.184.131-.185.131-.186.129-.186.129-.186.128-.187.126-.188.125-.188.125-.189.123-.189.122-.19.121-.19.12-.191.119-.191.118-.192.117-.192.115-.193.115-.193.113-.194.112-.194.111-.195.109-.195.108-.196.108-.196.105-.196.105-.198.103-.197.103-.198.1-.199.1-.199.098-.2.097-.2.096-.2.094-.201.093-.202.091-.202.09-.202.089-.203.087-.203.086-.204.085-.204.083-.205.081-.205.081-.206.078-.206.077-.206.076-.207.074-.207.073-.208.071-.208.07-.209.068-.209.067-.21.065-.21.063-.21.062-.211.06-.211.058-.212.057-.212.056-.212.053-.213.052-.214.051-.213.048-.215.047-.214.046-.215.043-.215.042-.216.04-.216.038-.217.037-.217.035-.217.033-.218.031-.218.029-.219.028-.219.025-.219.024-.219.022-.221.021-.22.018-.221.016-.221.015-.221.012-.222.011-.223.009-.222.007-.223.004-.224.003-.223.001-.225-.001-.224-.003-.225-.005-.225-.007-.225-.009-.226-.012-.227-.013-.226-.015-.227-.018-.227-.019-.228-.011-.128-.009-.125-.008-.121-.006-.118-.004-.114-.003-.111-.001-.107v-.104l.002-.1.003-.097.005-.094.006-.09.008-.086.009-.084.01-.08.012-.076.014-.074.014-.07.016-.066.018-.064.018-.06.02-.057.022-.053.022-.05.024-.048.025-.044.026-.04.027-.038.029-.034.029-.032.016-.014.015-.014.016-.013.016-.012.016-.011.017-.011.017-.009.017-.01.018-.008.017-.007.018-.007.018-.006.019-.005.019-.005.019-.003.019-.003.019-.003.02-.001.02-.001h.02l.041.003.042.005.043.008.044.012.045.014.045.017.047.02.047.023.048.025.049.029.05.031.05.035.051.037.052.04.052.042.054.046.053.048.055.051.055.053.056.057.056.059.057.061.057.065.058.067.059.069.059.073.059.075.06.077.061.08.061.083.061.085.062.088.062.09.062.093.063.095.063.098.063.1.064.103.064.105.064.107.064.11.065.112.065.115.065.117.065.12.065.121.065.124.066.127.065.128.066.131.066.134.066.135.065.138.066.14.066.142.066.144.065.146.066.149.065.151.066.153.065.155.065.157.065.159.065.161.064.164.065.165.064.168.064.169.063.171.064.174.063.175.062.178.063.179.062.181.061.183.061.185.061.187.06.189.06.191.06.192.059.195.058.196.058.198.057.2.057.201.057.203.055.205.055.207.055.209.053.21.053.212.053.213.052.215.051.217.05.218.049.221.049.221.048.223.047.225.046.226.046.228.044.23.044.231.043.232.042.234.041.235.04.237.039.238.038.24.037.241.036.243.035.244.034.245.033.246.031.248.031.249.03.251.028.252.027.253.026.254.025.256.023.257.023.258.021.259.02.261.018.261.017.263.016.264.015.265.013.267.011.267.011.268.009.27.007.27.006.272.005.273.003.273.001.275.001.276-.002.276-.003.278-.005.279-.006.279-.008.28-.009.282-.012.282-.012.283-.015.284-.016.285-.018.285-.02.287-.021.287-.023.288-.025.289-.027.289-.029.29-.031.292-.032.291-.034.293-.036.293-.038.294-.041.294-.042.295-.044.296-.046.296-.047.297-.051.298-.052.298-.054.298-.056.299-.058.3-.061.3-.062.301-.065.301-.067.302-.069.302-.071.303-.074.303-.076.303-.078.304-.08.304-.083.305-.085.305-.087.305-.089.305-.092.306-.095.306-.097.307-.099.307-.102.307-.104.307-.106.307-.109.308-.112.308-.114.308-.117.308-.119.308-.122.309-.124.308-.128.309-.129.309-.133.309-.135.309-.137.309-.141.309-.143.309-.146.309-.149.309-.151.309-.155.309-.157.309-.16.309-.162.309-.166.308-.169.309-.171.308-.087.155-.088.154-.089.155-.091.155-.091.156-.092.156-.187.312-.192.313-.196.314-.2.316-.203.316-.208.317-.212.318-.216.319-.219.32-.224.32-.227.322-.231.322-.235.323-.238.324-.243.324-.246.325-.249.326-.254.326-.257.327-.26.328-.264.328-.268.329-.271.329-.275.33-.277.33-.282.331-.285.331-.288.331-.291.332-.295.332-.298.332-.301.333-.304.333-.308.333-.31.334-.314.333-.317.334-.32.334-.323.334-.326.334-.329.334-.331.334-.335.335-.338.334-.34.334-.343.334-.347.334-.348.334-.352.334-.354.333-.357.334-.359.333-.363.333-.364.333-.368.332-.369.332-.373.332-.374.332-.378.331-.379.331-.382.33-.385.33-.386.329-.389.329-.391.328-.394.328-.395.327-.398.326-.4.326-.402.325-.404.325-.406.324-.409.323-.41.322-.412.322-.414.32-.416.32-.418.319-.42.319-.421.317-.424.316-.425.316-.427.314-.428.314-.431.312-.431.311-.434.311-.435.309-.437.308-.438.307-.439.305-.442.305-.442.303-.444.302-.446.301-.446.299-.448.298-.45.297-.45.295-.452.294-.453.293-.454.291-.456.29-.456.288-.458.286-.458.285-.46.284-.461.282-.461.28-.463.278-.463.277-.465.276-.465.273-.466.272-.467.27-.467.268-.469.266-.469.265-.469.262-.471.261-.471.259-.471.257-.472.254-.473.253-.473.251-.474.249-.474.247-.475.244-.474.243-.476.24-.475.238-.476.236-.476.234-.477.232-.476.229-.477.227-.477.224-.477.223-.477.219-.477.218-.478.215-.477.213-.477.21-.477.208-.477.205-.477.202-.477.2-.477.198-.476.195-.476.192-.476.189-.476.187-.475.184-.475.181-.475.179-.474.176-.474.173-.473.17-.473.167-.473.164-.471.162-.472.158-.47.156-.47.152-.469.15-.469.146-.468.144-.467.14-.466.137-.466.134-.464.131-.464.128-.463.124-.462.122-.461.118-.46.114-.459.112-.229.054-.229.054-.228.052-.228.052-.228.051-.228.051-.228.049-.227.048-.227.048-.226.047-.226.046-.226.045-.226.044-.225.043-.225.043-.225.041-.224.041-.225.04-.223.038-.224.038-.223.038-.222.036-.223.035-.222.034-.222.034-.221.032-.221.032-.221.031-.22.029-.22.029-.219.028-.219.027-.219.026-.218.025-.218.025-.218.023-.217.022-.217.021-.216.021-.216.019-.216.019-.215.017-.215.017-.214.015-.214.015-.214.014-.213.012-.212.012-.213.011-.211.009-.212.009-.21.008-.211.006-.21.006-.209.005-.209.004-.209.002-.208.002-.208.001-.207-.001-.206-.001-.207-.002-.205-.004-.205-.004-.205-.006-.204-.006-.204-.008-.203-.008-.203-.01-.202-.011-.201-.012-.202-.012-.2-.014-.2-.015-.2-.016-.199-.017-.198-.018-.198-.02-.197-.02-.197-.021-.196-.023-.196-.023-.195-.025-.195-.026-.194-.026-.193-.028-.193-.029-.192-.03-.192-.032-.191-.032-.19-.034-.19-.034-.19-.036-.188-.037-.188-.038-.188-.039-.187-.04-.186-.041-.186-.043-.185-.043-.184-.045-.184-.046-.183-.047-.182-.048-.182-.05-.181-.05-.181-.052-.18-.053-.179-.054-.178-.055-.178-.057-.177-.057-.177-.059-.176-.06-.175-.061-.174-.062-.174-.064-.173-.065-.173-.066-.172-.067-.171-.068-.17-.07-.17-.07-.168-.072-.169-.074-.167-.074-.167-.076-.166-.077-.165-.078-.165-.079-.163-.081-.164-.082-.162-.083-.161-.084-.161-.086-.16-.086-.16-.089-.158-.089-.158-.091-.157-.091-.156-.094-.156-.094-.154-.096-.154-.097-.153-.098-.153-.1-.151-.1-.151-.103-.15-.103-.149-.105-.148-.106-.147-.107-.132-.096-.131-.095-.132-.094-.132-.094-.133-.093-.133-.092-.133-.091-.133-.091-.134-.09-.134-.089-.134-.088-.135-.088-.135-.087-.135-.086-.135-.085-.136-.085-.136-.084-.136-.083-.137-.083-.137-.082-.137-.081-.138-.08-.137-.08-.139-.078-.138-.079-.139-.077-.138-.077-.14-.076-.139-.075-.14-.075-.28-.147-.281-.144-.283-.142-.283-.139-.285-.136-.285-.133-.287-.131-.287-.127-.289-.126-.289-.122-.291-.12-.291-.117-.293-.115-.293-.112-.294-.109-.295-.107-.296-.104-.297-.102-.298-.099-.299-.096-.3-.094-.3-.092-.302-.089-.302-.087-.303-.084-.304-.082-.304-.079-.306-.077-.306-.075-.307-.072-.307-.07-.309-.067-.309-.066-.31-.062-.311-.061-.311-.058-.312-.057-.312-.053-.314-.052-.314-.05-.314-.047-.316-.045-.316-.043-.316-.041-.317-.038-.318-.037-.318-.034-.319-.033-.32-.03-.32-.028-.32-.026-.321-.024-.322-.022-.322-.021-.322-.018-.323-.016-.324-.014-.324-.013-.324-.01-.325-.009-.325-.006-.326-.005-.326-.003-.326-.001-.327.001-.327.002-.328.004-.328.006-.328.008-.329.01-.329.011-.329.013-.329.015-.33.016-.33.018-.331.02-.33.021-.331.023-.331.025-.331.026-.332.027-.331.03-.332.031-.332.032-.332.034-.333.035-.332.037-.333.038-.333.04-.332.041-.333.042-.333.044-.334.046-.333.046-.333.048-.333.05-.333.05-.334.052-.333.054-.333.054-.334.056-.333.057-.333.058-.333.06-.333.061-.334.061-.332.063-.333.065-.333.065-.333.066-.332.068-.333.069-.332.069-.332.071-.332.072-.332.073-.332.073-.331.075-.331.076-.331.077-.331.078-.33.078-.331.08-.329.08-.33.081-.33.083-.329.083-.328.084-.329.084-.328.086-.328.086-.327.087-.327.088-.327.089-.326.089-.326.09-.326.091-.325.091-.324.092-.648.186-.647.189-.644.191-.642.193-.64.195-.638.197-.635.199-.633.201-.631.203-.628.204-.626.205-.622.206-.62.208-.617.208-.614.21-.611.21-.608.211-.605.211-.601.211-.597.212-.595.212-.59.212-.587.212-.583.211-.579.211-.576.211-.571.21-1.13.417-1.112.414-1.095.408-1.076.402-2.093.783-1.016.378-.994.368-.489.18-.484.177-.477.174-.472.171-.466.168-.46.164-.453.161-.448.157-.648.357-.65.356-.653.356-.655.356-.658.356-.66.356-.662.355-.665.355-.666.356-.67.355-.671.355-.674.354-.676.355-.678.354-.68.354-.682.354-.685.354-.686.353-.689.353-.69.353-.693.353-.694.352-.697.353-.698.352-.7.351-.702.351-.704.352-.706.35-.708.351-.709.35-.711.35-.712.349-.715.349-.716.349-.718.349-.719.348-.721.347-.722.348-.724.347-.725.346-.727.347-.729.345-.729.346-.732.345-.732.344-.734.345-.735.343-.737.344-.737.342-.739.343-.741.342-.741.341-.742.341-.744.341-.745.34-.746.339-.747.339-.748.339-.749.338-.75.337-.751.337-.751.337-.753.335-.754.336-.754.334-.756.335-.756.333-.757.333-.757.333-.758.332-.76.331-.759.33-.761.33-.761.33-.761.329-.762.328-.763.327-.763.327-.764.326-.764.326-.765.325-.765.324-.765.323-.766.323-.766.322-.766.322-.767.32-.767.32-.767.32-.768.318-.767.318-.768.317-1.536.632-1.536.628-1.536.626-1.536.622-1.536.619-1.535.616-1.535.613-1.533.609-1.533.605-1.531.602-1.529.599-1.528.594-1.526.592-1.524.587-1.521.584-1.519.579-1.516.576-1.513.572-1.509.568-1.507.563-1.502.56-1.499.555-1.495.552-1.49.546-1.487.543-1.481.538-1.477.533-1.471.529-1.466.525-1.461.52-1.455.515-1.449.51-1.444.505-1.436.501-1.431.496-1.423.49-1.417.486-1.409.481-1.402.475-1.395.47-1.387.465-1.379.46-1.37.454-1.363.449-1.353.443-1.345.438-1.336.432-1.327.427-1.317.421-1.308.415-1.298.409-1.288.403-1.278.398-1.267.391-1.256.385-1.246.38-1.235.373-1.223.367-1.212.36-1.2.355-1.188.347-1.176.342-1.164.335-1.152.328-1.138.322-1.126.315-1.113.309-.551.151-.548.15-.545.148-.541.147-.537.145-.535.143-.53.141-.528.14-.523.138-.521.136-.516.134-.513.133-.509.13-.506.129-.502.128-.498.125-.494.124-.491.121-.487.12-.483.118-.479.117-.475.114-.472.113-.467.111-.464.108-.459.107-.456.106-.451.103-.448.101-.443.1-.324.071-.33.07-.335.068-.342.068-.348.067-.354.066-.36.064-.365.064-.372.063-.378.061-.383.061-.39.059-.395.059-.401.057-.407.057-.413.055-.418.054-.424.054-.43.052-.435.051-.441.051-.447.049-.452.048-.458.048-.464.046-.468.046-.475.044-.48.043-.485.043-.491.041-.496.041-.501.039-.507.039-.512.038-.518.036-.523.036-.528.035-.533.034-.538.033-.544.032-.549.031-.553.03-.559.029-.564.028-.57.028-.574.026-.579.026-.584.024-.589.024-.594.023-.599.022-.604.021-.608.02-.614.019-.618.018-.623.018-.628.016-.632.016-.638.015-.642.014-.646.013-.651.012-.656.011-.661.011-.665.01-.669.008-.674.008-.679.008-.683.006-.687.005-.692.005-.696.004-.701.003-.705.002-.709.001-.713.001-.718-.001-.722-.001-.726-.002-.731-.002-.735-.004-.738-.004-.743-.005-.747-.006-1.506-.014-1.522-.018-1.538-.02-1.554-.023-1.57-.027-1.584-.029-1.6-.032-1.614-.036-1.629-.038-1.644-.041-1.658-.044-1.673-.047-1.686-.05-1.699-.052-1.714-.055-1.726-.058-1.74-.061-1.753-.063-1.766-.066-1.778-.069-1.79-.071-1.802-.074-1.815-.076-1.826-.079-1.838-.081-1.849-.084-1.86-.086-1.872-.089-1.882-.091-1.892-.093-1.903-.096-1.914-.098-1.923-.1-1.933-.103-1.942-.104-1.952-.107-1.962-.109-1.97-.111-1.979-.114-1.987-.115-1.996-.117-2.005-.12-2.012-.121-2.02-.124-2.028-.125-2.035-.128-2.042-.129-2.05-.131-2.056-.133-2.063-.134-2.069-.137-2.076-.138-2.082-.14-2.087-.142-2.093-.143-2.099-.145-2.104-.147-2.109-.148-2.114-.15-2.118-.151-2.123-.153-2.128-.154-2.131-.156-2.135-.158-2.139-.158-2.143-.16-2.146-.162-2.149-.162-2.152-.164-2.154-.166-2.157-.166-2.16-.168-2.161-.169-2.164-.17-2.165-.171-2.166-.172-2.168-.174-2.17-.174-2.17-.176-2.171-.176-2.171-.178-2.172-.178-2.172-.179-2.172-.18-2.172-.182-2.171-.181-2.17-.183-2.17-.184-2.169-.184-2.168-.185-2.166-.186-2.164-.186-2.163-.187-2.161-.188-2.158-.188-2.157-.189-2.153-.189-2.151-.19-4.292-.381-4.279-.383-4.264-.384-4.247-.386-4.229-.387-4.209-.387-4.188-.388-4.165-.389-4.14-.389-4.114-.389-4.087-.388-4.057-.389-4.026-.387-3.995-.387-3.96-.385-3.924-.385-3.888-.382-3.849-.381-3.808-.379-3.767-.377-3.723-.375-3.679-.372-3.632-.369-3.584-.366-3.534-.363-3.483-.359-3.43-.356-3.375-.351-3.32-.348-3.262-.343-3.203-.339-3.142-.334-3.08-.329-3.017-.324-2.951-.318-2.883-.313-2.816-.306-2.745-.301-2.673-.295-2.601-.288-2.525-.281-2.449-.274-2.371-.267-2.292-.26-2.21-.253-2.128-.244-2.043-.236-1.958-.229-1.87-.219-1.781-.211-1.69-.203-1.599-.193-1.505-.183-1.409-.175-1.313-.164-1.214-.155-1.114-.144-.519-.068-.494-.066-.241-.033-.242-.034-.244-.036-.245-.037-.246-.038-.247-.04-.249-.041-.251-.043-.251-.044-.253-.045-.254-.047-.256-.048-.256-.049-.258-.051-.259-.052-.261-.053-.261-.055-.263-.056-.264-.057-.266-.059-.266-.06-.268-.061-.269-.063-.27-.064-.271-.065-.273-.066-.274-.068-.274-.069-.276-.07-.278-.072-.278-.073-.279-.074-.281-.075-.282-.077-.283-.078-.284-.079-.285-.08-.286-.081-.287-.083-.288-.084-.29-.085-.29-.087-.292-.087-.293-.089-.293-.09-.295-.091-.296-.093-.297-.093-.298-.095-.299-.096-.299-.097-.301-.098-.302-.099-.303-.101-.304-.102-.305-.102-.306-.104-.307-.106-.307-.106-.309-.107-.62-.218-.625-.223-.627-.227-.632-.231-.635-.235-.638-.24-.642-.245-.646-.248-.649-.252-.652-.257-.655-.261-.659-.265-.662-.269-.664-.272-.668-.277-.671-.281-.674-.285-.677-.288-.68-.292-.682-.296-.685-.3-.688-.303-.691-.307-.693-.311-.696-.314-.698-.318-.7-.321-.703-.325-.705-.328-.708-.331-.709-.335-.712-.338-.714-.342-.716-.344-.718-.348-.72-.351-.722-.354-.724-.357-.725-.36-.727-.363-.729-.366-.731-.369-.732-.372-.733-.375-.735-.378-.737-.38-.738-.383-.739-.386-.74-.388-.742-.391-.742-.394-.744-.396-.745-.399-.746-.401-.747-.404-.748-.406-.748-.408-.75-.411-.75-.412-.75-.416-.752-.417-.752-.419-.752-.422-.753-.424-.753-.426-.754-.427-.754-.43-.754-.432-.755-.433-.754-.436-.755-.437-.754-.439-.755-.441-.755-.442-.754-.445-.755-.445-.754-.448-.753-.449-.754-.45-.753-.452-.753-.453-.752-.455-.751-.456-.752-.458-.75-.459-.75-.46-.748-.461-.749-.462-.747-.464-.746-.464-.746-.466-.744-.467-.743-.468-.742-.468-.741-.47-.74-.47-.738-.471-.738-.473-.735-.472-.735-.474-.732-.474-.732-.475-.729-.475-.728-.476-.727-.477-.724-.477-.723-.478-.721-.477-.718-.479-.717-.478-.715-.479-.713-.48-.711-.479-.708-.48-.707-.479-.704-.48-.701-.48-.699-.48-.697-.48-.694-.48-.692-.48-.689-.48-.687-.479-.683-.48-.681-.479-.679-.479-.675-.478-.672-.478-.67-.478-.666-.478-.663-.477-.66-.476-.657-.476-.654-.475-.65-.475-.647-.474-.644-.474-.64-.472-.637-.472-.633-.472-.629-.47-.626-.469-.622-.469-.619-.467-.614-.467-.611-.465-.606-.465-.603-.463-.599-.462-.594-.461-.591-.46-.586-.459-.582-.457-.578-.456-.573-.455-.569-.453-.564-.452-.56-.45-.556-.448-.55-.448-.546-.445-.542-.444-.536-.442-.532-.441-.527-.439-.522-.437-.517-.435-.511-.433-.507-.431-.502-.43-.496-.427-.491-.426-.486-.423-.481-.421-.475-.42-.469-.417-.464-.414-.459-.413-.453-.41-.447-.408-.441-.406-.436-.403-.43-.401-.424-.398-.418-.396-.412-.393-.406-.391-.399-.388-.394-.385-.388-.383-.381-.38-.375-.377-.368-.374-.362-.371-.356-.369-.349-.366-.343-.362-.335-.36-.33-.357-.322-.353-.316-.351-.155-.174-.154-.173-.151-.172-.151-.172-.148-.171-.146-.17-.145-.169-.143-.169-.142-.167-.139-.167-.138-.166-.136-.165-.134-.164-.133-.163-.13-.163-.129-.161-.127-.161-.125-.16-.124-.159-.121-.158-.12-.158-.118-.156-.116-.155-.114-.155-.112-.154-.11-.152-.109-.152-.106-.151-.105-.15-.103-.149-.1-.148-.099-.148-.097-.146-.095-.145-.094-.145-.091-.143-.089-.143-.087-.141-.086-.141-.083-.139-.081-.139-.08-.137-.077-.137-.076-.136-.073-.134-.071-.134-.07-.132-.067-.132-.066-.131-.063-.129-.063-.133-.064-.135-.063-.137-.064-.139-.063-.141-.063-.143-.062-.144-.063-.147-.063-.148-.062-.151-.062-.152-.062-.154-.062-.156-.062-.158-.062-.16-.061-.161-.062-.164-.061-.165-.061-.167-.061-.169-.121-.343-.121-.35-.121-.358-.119-.364-.119-.372-.119-.378-.118-.386-.117-.392-.116-.398-.117-.406-.115-.412-.115-.419-.114-.425-.113-.431-.113-.438-.112-.445-.112-.45-.111-.457-.11-.462-.11-.469-.109-.475-.108-.48-.108-.487-.107-.492-.107-.498-.105-.504-.105-.509-.105-.515-.103-.52-.103-.526-.103-.531-.101-.536-.101-.542-.101-.547-.099-.552-.099-.557-.098-.561-.098-.567-.097-.572-.096-.576-.095-.581-.094-.586-.094-.59-.094-.595-.092-.6-.092-.604-.091-.608-.09-.612-.089-.617-.089-.621-.088-.625-.087-.628-.087-.633-.086-.637-.085-.641-.084-.644-.083-.648-.083-.652-.082-.656-.081-.658-.08-.663-.08-.666-.079-.669-.078-.672-.077-.676-.076-.679-.076-.681-.075-.685-.074-.688-.073-.691-.072-.694-.072-.696-.071-.699-.07-.702-.069-.704-.068-.707-.067-.709-.067-.712-.066-.714-.065-.716-.064-.719-.063-.72-.063-.723-.061-.725-.061-.727-.06-.728-.059-.731-.058-.732-.057-.734-.056-.735-.056-.738-.054-.738-.054-.74-.053-.742-.052-.743-.051-.744-.05-.745-.05-.747-.048-.747-.047-.749-.047-.749-.046-.751-.044-.751-.044-.752-.043-.752-.042-.754-.041-.754-.04-.754-.04-.755-.038-.755-.037-.756-.036-.756-.036-.756-.034-.756-.034-.756-.033-.756-.031-.757-.031-.756-.03-.755-.028-.756-.028-.756-.027-.754-.026-.755-.024-.754-.024-.754-.023-.753-.022-.752-.021-.751-.02-.751-.019-.75-.018-.748-.016-.748-.016-.747-.015-.746-.014-.744-.013-.744-.012-.742-.01-.74-.01-.739-.009-.738-.007-.736-.007-.734-.006-.733-.004-.731-.004-.729-.002-.728-.002-.725v-.723l.001-.722.002-.719.002-.717.004-.715.005-.712.006-.71.007-.708.009-.705.009-.702.01-.7.012-.698.013-.694.013-.692.015-.688.016-.686.017-.683.018-.68.019-.676.021-.674.021-.67.023-.667.023-.663.025-.66.026-.657.027-.653.029-.649.029-.646.031-.642.031-.638.033-.634.034-.63.035-.626.037-.622.037-.618.039-.614.04-.609.041-.605.042-.601.043-.597.045-.591.046-.588.046-.582.049-.578.049-.573.05-.568.052-.564.053-.558.054-.554.056-.548.056-.543.058-.538.059-.533.06-.527.062-.522.062-.517.064-.511.066-.505.066-.5.068-.494.069-.489.07-.482.071-.477.073-.47.074-.465.075-.458.077-.453.077-.446.079-.44.081-.433.081-.428.083-.42.084-.414.086-.408.087-.401.088-.394.089-.388.091-.38.092-.374.093-.366.047-.181.047-.179.048-.177.048-.176.049-.173.048-.172.05-.17.049-.168.05-.167.05-.164.05-.163.051-.161.051-.159.052-.157.051-.156.052-.153.053-.151.053-.15.053-.148.053-.146.054-.144.054-.142.054-.14.055-.138.055-.136.056-.134.056-.133.056-.13.056-.128.057-.127.057-.124.058-.122.058-.121.058-.118.058-.116.059-.115.059-.112.06-.11.038-.069.04-.07.04-.07.041-.07.043-.07.043-.07.045-.07.045-.07.094-.142.098-.142.101-.142.106-.144.109-.144.113-.144.118-.145.121-.146.124-.146.129-.147.133-.147.136-.148.14-.149.144-.149.147-.15.152-.15.155-.151.158-.152.163-.152.166-.152.169-.153.174-.154.177-.154.18-.155.184-.156.188-.156.191-.156.195-.157.198-.157.202-.158.205-.159.209-.159.212-.16.216-.16.219-.16.223-.162.225-.161.23-.162.232-.163.236-.163.24-.164.243-.164.246-.165.249-.165.252-.165.256-.166.259-.167.262-.167.266-.168.269-.167.272-.169.275-.169.278-.169.281-.17.284-.17.288-.171.291-.171.293-.171.297-.172.3-.173.303-.173.306-.173.308-.174.312-.174.315-.175.318-.174.32-.176.324-.176.326-.176.33-.176.332-.177.335-.178.338-.178.341-.178.343-.178.346-.179.35-.18.351-.179.355-.18.357-.181.36-.181.363-.181.366-.181.368-.182.37-.183.374-.182.376-.183.378-.183.382-.184.383-.184.387-.184.389-.185.391-.185.394-.185.396-.186.399-.186.805-.373.815-.374.825-.375.834-.377.843-.377.852-.379.862-.38.871-.381.879-.382.888-.383.897-.384.906-.385.913-.386.922-.387.93-.388.938-.389.946-.39.954-.39.961-.392.969-.392.976-.392.983-.394.991-.394.997-.395 1.005-.396 1.011-.396 1.017-.397 1.025-.397 1.03-.398 1.037-.399 1.043-.399 1.049-.4 1.054-.399 1.061-.401 1.066-.401 1.072-.401 1.077-.401 1.082-.402 1.087-.402 1.093-.403 1.097-.403 1.102-.402 1.106-.404 1.112-.403 1.115-.403 1.12-.404 1.124-.403 1.127-.404 1.132-.404 1.136-.404 1.139-.404 1.142-.403 1.146-.404 1.15-.404 1.152-.403 1.155-.404 1.158-.403 1.161-.403 1.164-.403 1.166-.402 1.169-.403 1.17-.402 1.173-.402 1.175-.401 1.177-.401 1.179-.401 1.18-.4 1.181-.4 1.184-.399 1.184-.399 1.185-.399 1.187-.398 1.187-.397 1.188-.397 1.189-.396 1.189-.395 2.38-.789 2.38-.786 2.38-.783 2.378-.78 2.375-.776 2.373-.773 2.368-.769 2.362-.764 2.356-.761 2.349-.756 2.34-.751 2.331-.746 2.32-.741 2.309-.736 2.296-.731 2.283-.725 2.269-.719 2.253-.712 2.237-.707 2.22-.7 2.201-.693 4.343-1.366 4.257-1.336 4.164-1.305 4.063-1.273 3.953-1.239 3.836-1.202 3.71-1.166 1.805-.568 1.772-.558 1.735-.548 1.7-.538 1.662-.527 1.624-.516 1.585-.506 1.544-.494 1.503-.483 1.46-.471 1.418-.459 1.373-.448 1.327-.435 1.282-.423.623-.206.611-.204.599-.2.586-.197.575-.194.562-.191.549-.187.537-.184.524-.18.511-.178.498-.173.484-.171.472-.167.458-.163.444-.16.431-.156.416-.153.403-.149.389-.146.375-.142.36-.138.346-.135.331-.131.317-.127.302-.124.287-.119.271-.116.257-.112.241-.108.226-.105.107-.05.103-.05.1-.049.095-.048.096-.047.1-.048.106-.048.11-.048.116-.049.12-.049.125-.049.129-.05.135-.05.139-.05.144-.05.149-.051.153-.051.158-.052.163-.052.167-.052.172-.052.177-.053.181-.052.186-.054.19-.053.195-.054.199-.054.204-.054.208-.055.213-.055.218-.055.221-.056.226-.055.231-.056.235-.057.239-.056.492-.114.508-.115.526-.116.543-.117.559-.118.577-.119.592-.12.609-.12.626-.122.641-.123.658-.124.673-.124.688-.125.705-.127.719-.127.735-.128.75-.128.765-.13.78-.13.794-.131.809-.132.824-.132.837-.134.852-.134.865-.134.88-.136.893-.135.906-.137.92-.137.933-.138.946-.139.96-.139.972-.139.984-.14.997-.141 1.01-.141 1.022-.142 1.034-.142 1.045-.143 1.058-.143 1.069-.143 1.081-.144 1.092-.145 1.103-.145 1.115-.145 1.125-.145 1.137-.146 1.146-.146 1.158-.147 1.168-.147 1.178-.147 1.188-.147 1.198-.148 1.208-.148 1.217-.148 1.227-.148 1.237-.149 1.246-.149 1.254-.148 1.264-.15 1.273-.149 1.281-.149 1.289-.149 1.299-.15 1.306-.149 1.314-.15 1.323-.15 1.33-.149 1.338-.15 1.345-.15 1.353-.149 1.36-.15 1.367-.15 1.374-.149 1.381-.149 1.388-.15 1.394-.149 1.4-.149 1.407-.149 1.412-.149 1.419-.148 1.425-.149 1.43-.148 1.436-.148 1.441-.148 1.446-.147 1.452-.148 1.456-.147 1.461-.146 1.466-.147 1.471-.146 1.475-.145 1.479-.146 1.483-.145 1.487-.144 1.491-.144 1.495-.144 1.498-.143 1.501-.143 1.505-.143 1.508-.142 1.511-.141 1.513-.141 1.517-.14 1.519-.14 1.521-.139 1.523-.139 1.526-.138 1.528-.138 1.529-.136 1.531-.137 1.533-.135 1.534-.135 1.535-.134 1.536-.134 1.537-.133 1.539-.132 1.538-.131 1.54-.131 1.539-.13 1.54-.129 1.54-.128 1.54-.128 1.54-.126 1.54-.126 1.539-.125 1.538-.124 1.538-.123 1.537-.122 1.536-.121 1.534-.12 1.534-.12 1.531-.118 1.531-.118 1.528-.116 1.527-.115 1.524-.115 1.523-.113 1.52-.112 1.517-.111 1.515-.11 1.512-.109 1.51-.108 1.506-.107 1.503-.105 1.5-.104 1.496-.104 1.493-.101 1.489-.101 1.485-.1 1.481-.098 1.477-.097 1.473-.095 1.468-.095 1.464-.093 1.458-.091 1.454-.091 1.449-.089 1.444-.088 1.438-.086 1.433-.085 1.428-.083 1.421-.082 1.416-.081 1.41-.079 1.403-.077 1.397-.076 1.391-.075 1.384-.073 1.377-.071 1.371-.07 1.363-.069 1.357-.067 1.349-.065 1.341-.063 1.334-.062 1.326-.061 1.319-.058 1.31-.057 1.302-.055 1.294-.054 1.285-.052 1.277-.05 1.268-.048 1.259-.046 1.25-.045 1.241-.043 1.232-.041 1.222-.039 1.213-.038 1.203-.035L473.09.27l1.183-.032 1.172-.03 1.163-.028 1.152-.026 1.141-.024 1.131-.022 1.12-.02 1.109-.018 1.097-.016 1.087-.014 1.075-.012 1.063-.009 1.051-.008 1.04-.006 1.028-.004L490.717 0l1.003.001zm-2 7.5l-1.012.004-1.025.006-1.038.007-1.049.01-1.061.012-1.074.014-1.085.015-1.096.018-1.108.02-1.119.022-1.13.024-1.141.025-1.151.028-1.162.03-1.173.031-1.183.034-1.193.035-1.203.037-1.213.039-1.222.041-1.232.042-1.241.045-1.251.046-1.259.048-1.269.049-1.277.052-1.286.053-1.294.055-1.303.057-1.311.058-1.319.06-1.326.061-1.335.064-1.342.064-1.349.067-1.357.068-1.364.07-1.371.071-1.378.072-1.384.075-1.391.075-1.397.078-1.404.078-1.41.081-1.416.081-1.421.083-1.428.085-1.432.086-1.439.087-1.443.089-1.449.09-1.453.091-1.458.093-1.463.094-1.468.095-1.472.097-1.476.098-1.48.099-1.484.1-1.488.102-1.492.103-1.495.104-1.499.105-1.501.106-1.505.108-1.508.108-1.51.11-1.513.111-1.516.112-1.518.113-1.52.114-1.523.115-1.524.116-1.526.117-1.527.118-1.53.119-1.53.12-1.532.121-1.532.121-1.534.123-1.535.124-1.535.124-1.535.126-1.536.126-1.536.127-1.536.128-1.536.129-1.536.129-1.536.131-1.534.131-1.535.131-1.533.133-1.533.133-1.531.134-1.53.135-1.529.135-1.527.136-1.526.136-1.524.138-1.522.137-1.519.139-1.518.139-1.515.139-1.512.14-1.51.141-1.507.141-1.504.141-1.501.142-1.498.143-1.494.143-1.491.143-1.487.144-1.484.144-1.479.145-1.475.145-1.471.145-1.467.146-1.462.145-1.457.147-1.452.146-1.448.147-1.442.147-1.437.148-1.432.147-1.426.148-1.421.148-1.414.148-1.409.149-1.402.148-1.396.149-1.39.148-1.383.149-1.377.149-1.369.149-1.363.149-1.356.149-1.348.15-1.341.149-1.333.149-1.325.149-1.318.149-1.31.149-1.301.149-1.293.149-1.285.149-1.276.149-1.267.148-1.259.149-1.249.148-1.24.148-1.231.148-1.222.147-1.212.148-1.202.147-1.192.147-1.182.147-1.172.146-1.161.146-1.151.146-1.141.145-1.129.145-1.119.145-1.107.144-1.097.144-1.084.143-1.074.143-1.061.143-1.05.142-1.038.141-1.025.142-1.014.14-1 .14-.989.139-.975.139-.962.138-.95.138-.936.137-.923.136-.909.136-.895.135-.882.134-.867.134-.853.132-.839.132-.824.131-.81.131-.794.129-.78.129-.764.127-.748.127-.733.126-.718.125-.701.123-.685.123-.668.122-.652.12-.634.12-.618.118-.6.117-.582.115-.565.114-.546.113-.528.111-.509.11-.489.108-.47.106-.455.106-.212.05-.212.05-.207.051-.201.049-.196.049-.191.049-.185.047-.179.047-.173.047-.168.045-.161.045-.156.043-.149.043-.142.042-.137.04-.13.04-.122.038-.115.037-.109.035-.1.033-.093.032-.085.03-.076.027-.067.025-.058.023-.049.019-.038.016-.028.011-.015.007-.019.009-.106.053-.151.074-.151.073-.162.077-.295.136-.314.14-.32.14-.328.14-.338.141-.347.142-.358.144-.369.146-.38.148-.392.15-.403.153-.416.156-.427.158-.439.161-.452.164-.464.167-.476.17-.488.173-.501.176-.513.179-.524.182-.537.185-.549.188-.561.191-.573.194-.585.198-.596.2-.608.203-.62.207-.632.21-1.295.427-1.34.439-1.385.451-1.428.463-1.47.475-1.511.485-1.552.497-1.591.507-1.63.518-1.667.529-1.704.539-1.74.549-1.775.56-1.809.569-3.714 1.166-3.838 1.204-3.954 1.239-4.062 1.273-4.162 1.304-4.254 1.336-4.34 1.364-2.198.692-2.216.699-2.234.706-2.25.712-2.265.717-2.279.724-2.293.729-2.304.735-2.316.739-2.325.745-2.335.75-2.343.754-2.35.758-2.357.763-2.361.767-2.366.77-2.368.774-2.371.777-2.372.781-2.372.783-2.372.787-1.184.393-1.185.395-1.183.395-1.183.396-1.182.396-1.181.397-1.179.397-1.178.398-1.177.398-1.175.399-1.173.399-1.171.399-1.17.4-1.167.399-1.165.401-1.163.4-1.16.401-1.158.4-1.155.401-1.152.401-1.149.402-1.145.401-1.143.401-1.139.401-1.136.402-1.132.401-1.128.401-1.125.401-1.12.401-1.116.401-1.112.401-1.108.401-1.103.4-1.098.4-1.094.4-1.088.399-1.084.4-1.078.398-1.073.399-1.068.398-1.062.397-1.056.398-1.05.396-1.045.396-1.038.396-1.033.395-1.025.394-1.02.394-1.013.393-1.006.392-.999.392-.992.39-.985.39-.977.39-.97.388-.963.387-.955.387-.947.385-.939.385-.931.383-.923.383-.915.381-.906.381-.897.379-.888.378-.88.376-.87.376-.862.374-.852.373-.842.371-.833.37-.823.369-.813.367-.803.365-.792.364-.786.364-.384.179-.385.18-.381.18-.38.179-.376.179-.374.178-.371.178-.368.177-.365.177-.363.176-.36.176-.357.176-.354.175-.351.174-.348.174-.345.174-.343.172-.339.173-.336.172-.334.171-.33.17-.327.171-.324.169-.321.169-.318.168-.315.168-.312.167-.308.166-.305.166-.302.165-.298.165-.296.164-.292.163-.288.162-.285.162-.282.16-.279.161-.275.159-.271.159-.268.157-.264.157-.261.156-.258.156-.253.154-.25.154-.247.152-.242.152-.239.151-.236.15-.231.148-.227.148-.224.147-.22.145-.216.145-.212.143-.208.142-.203.141-.201.14-.195.138-.192.137-.187.136-.184.135-.178.132-.175.132-.17.129-.167.129-.161.126-.157.125-.153.123-.148.122-.144.119-.139.117-.135.116-.129.113-.125.111-.121.108-.115.107-.111.103-.106.101-.101.098-.096.096-.091.092-.086.09-.081.085-.076.083-.071.079-.066.076-.061.071-.056.067-.05.063-.047.059-.04.053-.036.049-.031.043-.027.039-.031.047-.008.012-.007.012-.005.009-.005.008-.004.007-.002.004-.002.003-.024.044-.024.046-.026.05-.027.054-.028.057-.029.061-.03.063-.031.068-.032.071-.033.074-.033.077-.034.081-.034.083-.036.088-.035.089-.036.093-.037.096-.037.098-.037.103-.038.104-.038.107-.038.111-.038.113-.039.116-.038.118-.039.122-.04.123-.039.127-.039.129-.039.131-.04.134-.039.137-.04.139-.039.142-.04.144-.039.146-.04.149-.037.144-.081.317-.078.318-.078.327-.077.336-.077.345-.077.353-.075.361-.076.369-.074.378-.074.385-.072.393-.072.401-.071.408-.071.416-.069.423-.069.43-.067.437-.067.443-.065.451-.065.458-.063.464-.063.47-.061.477-.061.484-.059.489-.059.496-.057.502-.056.507-.055.514-.054.519-.054.525-.051.531-.051.536-.05.542-.049.547-.047.552-.047.557-.045.563-.044.568-.043.572-.042.577-.041.583-.04.587-.039.592-.037.596-.037.601-.035.605-.034.609-.033.614-.032.619-.031.622-.03.626-.029.631-.027.634-.027.638-.025.642-.025.646-.023.649-.022.653-.021.656-.02.66-.019.664-.018.666-.016.67-.016.673-.014.676-.014.679-.012.682-.011.685-.011.688-.009.691-.008.693-.007.696-.006.698-.005.701-.004.703-.003.706-.001.708-.001.711v.712l.002.714.002.717.004.719.004.72.006.722.006.724.008.726.008.727.01.729.011.73.011.732.013.733.013.735.015.736.016.736.016.738.018.739.019.74.019.741.021.742.022.743.022.743.024.744.024.744.026.745.026.746.027.746.029.746.029.746.03.747.032.747.032.746.033.747.034.747.035.746.036.747.037.746.038.746.038.745.04.745.041.745.041.743.042.744.044.742.044.742.045.74.046.74.047.739.047.738.049.737.05.735.05.735.051.733.052.731.053.731.054.728.055.728.056.725.056.724.057.722.059.72.059.718.059.717.061.714.062.712.062.71.063.708.064.705.065.704.065.7.067.698.067.696.068.693.069.69.069.688.071.685.071.682.072.678.073.676.073.673.074.67.075.666.076.663.077.66.077.656.078.652.079.65.079.645.08.642.081.638.082.634.082.63.083.626.084.622.085.618.085.614.086.61.086.605.087.601.088.596.089.592.089.587.089.582.091.577.091.573.092.568.092.562.093.558.093.552.095.548.094.542.095.536.096.531.097.525.096.52.098.514.098.508.098.503.099.496.1.49.099.484.101.478.1.472.102.465.101.458.102.452.102.445.103.439.103.431.103.425.103.417.104.41.104.403.104.395.104.387.104.38.104.372.104.365.104.355.104.348.104.34.104.33.103.323.103.313.102.304.102.295.104.293.047.133.05.136.05.135.05.132.049.129.049.127.049.125.048.122.048.118.048.117.047.114.047.111.046.109.046.106.046.102.044.1.045.097.043.095.043.092.04.083.034.07.035.068.036.071.039.074.041.077.043.079.046.083.048.085.05.087.053.09.055.092.058.095.06.097.062.099.064.101.067.104.069.105.071.108.074.11.076.111.078.114.081.116.083.117.085.119.087.12.089.123.092.124.094.126.096.127.098.129.101.131.102.132.105.134.106.135.109.137.111.138.113.139.115.141.118.142.119.144.121.145.123.146.126.148.127.148.129.15.132.152.133.152.135.154.138.154.135.152.288.32.292.32.299.324.307.328.314.333.321.337.329.34.335.345.343.348.35.352.356.355.364.359.37.362.377.366.384.369.39.373.396.375.403.379.409.381.416.385.422.387.427.39.434.393.44.396.446.398.451.402.458.403.463.406.469.409.474.411.48.413.485.416.491.417.496.42.502.422.507.425.511.426.517.428.522.431.527.432.532.434.537.435.541.438.547.439.551.441.555.443.561.444.564.446.569.447.574.448.578.45.582.452.586.453.591.454.594.455.599.456.603.458.606.459.611.459.614.461.618.462.622.463.626.463.629.465.632.465.636.466.64.467.642.467.647.468.649.469.653.469.655.47.659.471.662.47.665.472.668.471.67.472.674.472.676.473.679.472.681.473.684.473.687.473.689.473.692.473.694.473.696.473.699.473.7.473.703.472.705.472.707.472.709.472.711.471.713.471.714.471.716.47.718.469.72.469.721.469.723.467.724.467.726.467.727.465.729.465.729.464.731.463.732.463.733.461.735.46.735.46.736.458.737.457.738.456.738.455.739.454.74.452.741.451.741.45.742.448.742.447.742.446.743.444.743.442.743.441.743.439.744.438.743.436.744.434.743.433.743.431.744.428.742.427.743.425.742.423.742.422.741.419.741.416.741.415.739.413.739.411.739.408.737.406.737.403.735.402.735.399.734.396.732.394.732.392.731.389.729.386.727.384.726.381.726.378.723.376.722.373.72.37.719.367.717.364.715.361.713.359.712.355.71.352.707.35.706.346.703.342.701.34.699.336.696.333.695.33.691.326.69.323.686.32.684.316.682.312.678.309.676.305.674.302.67.298.666.294.664.291.662.286.657.283.655.279.651.275.647.271.645.267.641.263.637.259.633.255.63.25.626.246.622.243.618.237.615.234.61.229.605.225.602.22.598.216.592.212.593.208.289.101.291.1.29.099.289.099.288.097.287.096.286.095.284.093.283.092.282.092.28.09.28.089.278.087.277.087.275.085.275.084.273.083.272.082.27.08.268.079.268.078.266.076.265.076.263.074.263.073.261.072.259.07.257.069.256.068.256.067.253.066.252.064.25.063.249.061.248.061.245.058.245.058.243.057.24.055.24.054.238.052.237.052.234.05.233.048.231.048.229.046.229.045.225.043.225.042.223.041.22.04.219.038.217.037.217.036.213.034.212.033.209.032.209.03.205.029.21.029.477.063.506.067 1.099.142 1.198.153 1.299.163 1.398.172 1.495.183 1.589.192 1.682.201 1.773.21 1.863.219 1.951.228 2.037.235 2.122.244 2.205.252 2.286.259 2.366.267 2.444.273 2.521.281 2.596.288 2.669.294 2.741.3 2.811.306 2.88.313 2.947.317 3.012.324 3.076.328 3.139.334 3.199.338 3.258.343 3.316.347 3.372.352 3.426.355 3.479.359 3.53.362 3.58.366 3.628.369 3.675.371 3.72.374 3.762.377 3.805.378 3.845.381 3.884.382 3.92.384 3.956.385 3.99.387 4.022.387 4.053.388 4.083.388 4.11.388 4.135.389 4.161.388 4.183.388 4.204.387 4.224.386 4.243.385 4.259.384 4.274.383 4.287.38 2.148.19 2.151.189 2.154.189 2.155.188 2.158.187 2.16.187 2.162.186 2.163.185 2.165.185 2.166.184 2.167.183 2.168.183 2.168.182 2.169.18 2.169.18 2.169.179 2.168.179 2.169.177 2.167.176 2.167.175 2.166.174 2.165.173 2.163.172 2.162.171 2.16.17 2.158.169 2.156.167 2.153.167 2.151.165 2.148.163 2.146.163 2.141.161 2.139.159 2.135.159 2.132.157 2.127.155 2.123.154 2.119.153 2.115.151 2.109.149 2.105.148 2.099.147 2.095.144 2.088.143 2.083.142 2.077.14 2.071.137 2.064.137 2.058.134 2.052.133 2.044.13 2.037.129 2.03.127 2.022.125 2.015.123 2.006.121 1.999.12 1.99.117 1.982.115 1.973.113 1.964.111 1.955.108 1.945.107 1.937.104 1.926.102 1.916.1 1.907.098 1.896.095 1.885.093 1.875.091 1.863.088 1.853.086 1.841.083 1.83.081 1.818.079 1.806.076 1.794.073 1.782.071 1.769.068 1.756.066 1.744.063 1.73.06 1.717.058 1.703.055 1.689.052 1.676.049 1.661.047 1.647.043 1.632.041 1.618.038 1.602.035 1.587.032 1.572.029 1.556.027 1.54.023 1.525.02 1.507.017 1.494.014.737.006.735.005.732.004.726.004.722.002.719.002.713.001.709.001.705-.001.701-.001.696-.002.692-.003.687-.004.682-.005.678-.005.673-.006.669-.007.664-.008.66-.009.654-.009.65-.011.645-.011.641-.012.635-.013.63-.013.626-.015.621-.015.616-.017.611-.017.605-.018.602-.018.595-.02.591-.021.585-.021.58-.022.575-.023.57-.024.565-.025.559-.026.554-.027.548-.027.543-.028.538-.03.532-.03.527-.031.521-.032.515-.032.51-.034.504-.034.498-.036.493-.036.487-.037.481-.038.475-.039.469-.039.463-.041.458-.041.451-.043.444-.043.439-.044.433-.044.426-.046.421-.046.413-.048.408-.048.4-.048.395-.05.387-.051.381-.051.374-.052.368-.052.36-.053.354-.054.346-.055.34-.056.332-.055.325-.057.318-.057.311-.058.302-.058.295-.058.288-.059.279-.06.281-.061.419-.094.432-.098.437-.1.441-.102.445-.103.45-.106.454-.108.457-.109.462-.111.467-.113.47-.116.474-.116.479-.119.482-.121.486-.122.491-.124.494-.126.498-.128.502-.13.506-.132.509-.133.513-.135.517-.137.52-.138.524-.141.528-.142.531-.144.535-.145.539-.148.539-.148 1.096-.304 1.108-.31 1.121-.317 1.134-.323 1.147-.33 1.159-.337 1.173-.343 1.184-.35 1.196-.356 1.208-.362 1.22-.368 1.231-.375 1.242-.381 1.253-.387 1.264-.393 1.274-.399 1.284-.405 1.294-.411 1.304-.416 1.314-.423 1.323-.428 1.332-.433 1.341-.439 1.35-.445 1.358-.45 1.366-.456 1.375-.461 1.382-.466 1.39-.471 1.398-.477 1.405-.481 1.411-.487 1.419-.491 1.425-.497 1.431-.501 1.438-.507 1.443-.511 1.45-.515 1.454-.521 1.46-.524 1.465-.53 1.471-.534 1.474-.538 1.479-.543 1.484-.546 1.487-.552 1.491-.555 1.495-.559 1.499-.564 1.501-.567 1.504-.572 1.508-.575 1.509-.579 1.512-.583 1.515-.587 1.516-.59 1.517-.594 1.52-.597 1.521-.601 1.521-.605 1.523-.607 1.523-.611 1.524-.614 1.524-.618 1.524-.62 1.523-.624 1.525-.627.76-.314.762-.315.761-.316.76-.317.761-.317.76-.318.76-.319.76-.319.759-.32.759-.321.759-.322.758-.321.757-.323.758-.324.756-.324.756-.324.756-.326.754-.325.755-.327.753-.327.753-.328.752-.328.752-.329.75-.329.75-.33.749-.331.749-.331.747-.331.747-.332.745-.333.745-.333.743-.334.743-.334.742-.335.74-.335.74-.336.738-.336.737-.336.736-.337.735-.338.734-.338.733-.338.731-.339.73-.339.728-.34.728-.34.725-.34.725-.341.723-.341.721-.342.721-.342.718-.342.717-.342.716-.344.714-.343.712-.343.711-.344.709-.345.707-.344.706-.345.704-.345.702-.345.7-.346.699-.346.696-.346.695-.347.693-.347.691-.347.689-.347.686-.347.685-.348.683-.347.681-.348.679-.349.676-.348.675-.348.672-.349.67-.349.668-.349.666-.349.663-.349.66-.349.659-.35.656-.349.654-.35.652-.35.649-.349.646-.35.644-.35.641-.35.639-.35.642-.353 1.13-.505.438-.154.434-.154.442-.158.45-.162.458-.166.465-.169.472-.173.477-.176.982-.363 1.004-.374 2.089-.781 1.078-.403 1.102-.411 1.123-.417 1.143-.422.582-.214.584-.214.59-.215.595-.216.599-.216.603-.217.608-.217.613-.217.616-.216.621-.218.625-.216.629-.217.633-.215.637-.216.641-.214.644-.214.648-.212.651-.212.655-.21.658-.209.662-.207.664-.205.668-.204.671-.202.673-.199.677-.198.675-.194.345-.097.341-.096.342-.096.343-.095.344-.094.343-.093.345-.092.345-.092.346-.091.347-.091.347-.089.348-.089.348-.088.349-.087.349-.086.35-.085.35-.085.351-.083.352-.083.352-.081.353-.081.353-.08.353-.079.354-.077.355-.077.355-.076.355-.074.356-.074.356-.072.357-.071.357-.07.358-.069.358-.068.358-.067.359-.065.36-.064.359-.063.36-.062.361-.06.361-.059.36-.058.362-.056.361-.055.362-.054.363-.052.363-.051.363-.049.363-.048.364-.047.363-.045.364-.043.365-.042.365-.04.365-.039.365-.037.365-.036.366-.034.366-.032.366-.031.366-.029.367-.027.366-.025.367-.024.367-.022.367-.02.367-.018.368-.016.368-.015.368-.012.367-.011.368-.009.368-.007.369-.005.368-.002.368-.001.369.001.368.003.369.006.369.007.368.01.369.012.369.014.368.016.369.019.369.021.369.023.368.025.369.028.368.03.369.032.368.035.368.038.369.039.368.043.368.045.367.047.368.05.367.052.368.056.367.057.366.061.367.063.366.066.366.069.366.071.366.074.365.077.365.08.364.083.364.086.364.088.363.092.363.094.362.098.362.101.361.103.361.107.361.11.36.113.359.116.358.119.358.122.358.126.356.129.356.132.355.136.355.139.353.142.353.145.352.149.351.153.35.155.349.159.349.163.347.166.346.17.345.173.344.176.335.176.179.096.171.092.17.093.17.094.171.095.169.096.169.096.169.098.169.099.167.099.169.1.168.102.166.101.168.104.167.104.165.104.166.106.166.107.166.108.164.107.164.11.165.111.164.111.163.112.163.113.162.113.163.116.162.116.161.116.141.103.116.085.098.07.097.068.098.068.099.067.099.066.1.065.102.065.101.064.101.063.104.063.103.061.104.061.105.061.106.059.106.059.106.058.109.057.108.057.109.056.11.055.111.054.112.054.111.053.114.053.114.051.114.051.116.05.116.05.117.049.118.048.119.048.12.046.119.046.121.045.123.045.122.044.124.043.125.043.125.041.127.041.127.041.127.039.13.039.129.038.13.038.132.036.132.036.133.035.135.035.134.034.137.033.136.032.137.031.139.031.14.03.14.029.141.029.142.028.142.026.144.027.145.025.145.025.147.024.147.023.148.022.148.021.15.021.151.02.152.019.152.018.153.018.154.017.155.016.156.015.156.014.157.013.159.013.159.012.159.011.161.01.162.01.162.008.163.008.164.007.165.006.165.005.166.005.168.004.168.002.168.002.169.001.17.001.172-.001.171-.001.173-.002.173-.004.174-.003.175-.005.175-.006.175-.006.178-.008.177-.008.178-.009.179-.01.18-.01.181-.012.18-.012.182-.013.183-.014.182-.015.185-.016.184-.017.184-.017.186-.018.187-.019.187-.02.187-.021.189-.022.188-.022.19-.024.19-.024.191-.025.191-.026.192-.026.192-.028.194-.028.193-.03.194-.03.195-.031.195-.031.196-.033.196-.033.198-.034.197-.035.198-.036.198-.037.2-.038.2-.038.199-.039.2-.04.202-.041.202-.041.202-.043.202-.043.203-.044.204-.045.204-.046.204-.046.205-.047.205-.048.2-.048.419-.102.415-.103.416-.106.417-.11.42-.113.42-.116.423-.119.424-.122.425-.125.426-.128.428-.131.43-.134.43-.137.432-.141.432-.143.434-.145.435-.149.436-.152.437-.155.438-.157.438-.16.44-.163.44-.166.442-.168.442-.172.443-.173.443-.177.444-.179.445-.182.445-.184.446-.187.446-.19.447-.192.447-.195.448-.197.447-.199.449-.202.448-.205.448-.206.449-.209.45-.212.449-.214.449-.216.449-.218.449-.221.449-.222.449-.225.45-.227.449-.23.449-.231.448-.233.448-.236.449-.238.447-.239.447-.241.448-.244.447-.246.446-.247.445-.249.446-.251.445-.253.444-.255.443-.256.443-.258.442-.26.442-.262.44-.263.44-.265.439-.267.438-.268.438-.27.436-.271.435-.272.435-.275.434-.276.432-.277.431-.278.431-.28.429-.281.428-.283.427-.284.425-.285.424-.287.423-.287.421-.289.421-.29.418-.291.417-.292.416-.293.414-.295.413-.295.411-.297.41-.297.407-.298.407-.299.404-.3.403-.301.401-.302.399-.303.397-.303.395-.304.394-.305.391-.305.39-.306.388-.307.385-.307.383-.308.382-.309.379-.308.377-.31.375-.31.372-.31.37-.311.369-.311.365-.311.363-.312.361-.312.359-.312.355-.313.354-.312.351-.313.348-.313.346-.313.343-.313.34-.313.338-.313.335-.312.332-.313.329-.313.327-.313.324-.312.32-.312.318-.312.314-.312.313-.312.309-.311.305-.31.303-.31.299-.31.296-.309.293-.309.291-.309.286-.306.283-.307.28-.307.277-.305.272-.305.27-.304.267-.303.262-.302.26-.302.255-.3.252-.299.248-.298.245-.297.241-.296.237-.295.233-.293.23-.293.226-.291.222-.289.218-.288.214-.286.209-.285.207-.284.202-.282.198-.28.194-.278.189-.276.186-.274.181-.273.178-.271.173-.268.168-.266.165-.265.16-.261.16-.267.073-.122.074-.127.074-.127.073-.128.072-.126.069-.122.147-.264.141-.259.14-.261.137-.259.134-.26.133-.26.129-.26.128-.26.125-.26.122-.258.121-.261.117-.259.116-.259.114-.26.11-.258.109-.26.107-.259.104-.259.102-.258.101-.259.097-.258.096-.259.094-.257.091-.258.09-.259.087-.257.085-.257.083-.257.082-.259.079-.256.077-.256.075-.258.073-.254.071-.256.07-.256.068-.256.065-.254.063-.255.063-.256.059-.253.058-.254.056-.253.055-.254.053-.253.05-.252.05-.253.047-.251.045-.251.044-.251.042-.25.041-.251.039-.25.037-.25.035-.249.034-.247.032-.247.008-.069-.136.19-.154.212-.155.212-.157.212-.157.21-.159.21-.159.208-.16.209-.161.206-.161.206-.163.206-.163.204-.164.204-.165.203-.165.201-.167.201-.166.2-.169.2-.168.197-.169.198-.17.197-.17.196-.172.195-.172.194-.172.193-.172.192-.175.193-.174.19-.175.19-.174.188-.178.19-.176.187-.176.186-.178.186-.179.185-.178.184-.179.183-.18.183-.181.182-.18.18-.18.18-.182.18-.182.178-.182.178-.183.176-.182.176-.184.176-.184.174-.188.177-.366.341-.37.341-.372.338-.373.335-.374.331-.375.328-.375.325-.377.322-.377.319-.379.316-.378.312-.378.308-.38.306-.379.303-.38.299-.379.296-.38.293-.38.29-.379.286-.379.283-.379.28-.378.277-.379.273-.377.27-.376.267-.376.264-.375.26-.374.257-.374.254-.372.251-.371.247-.37.244-.368.241-.367.237-.366.235-.364.231-.363.227-.36.224-.359.221-.357.218-.355.214-.353.211-.351.208-.349.204-.347.201-.344.198-.342.194-.339.191-.338.187-.334.184-.331.181-.329.177-.327.174-.329.174-.231.12-.237.121-.238.118-.237.116-.237.113-.238.111-.238.108-.238.106-.238.104-.238.101-.238.098-.238.097-.238.094-.239.091-.238.089-.239.087-.238.083-.237.082-.239.079-.239.077-.237.075-.237.071-.239.07-.238.067-.237.065-.238.063-.237.06-.237.058-.236.055-.237.053-.237.051-.235.048-.235.046-.236.044-.234.041-.234.04-.235.037-.234.035-.232.032-.232.031-.232.028-.232.026-.231.024-.23.022-.231.02-.228.017-.228.016-.228.014-.228.012-.225.009-.226.008-.226.006-.224.004-.224.002-.222.001-.222-.002-.221-.003-.22-.005-.219-.007-.219-.008-.218-.01-.217-.011-.215-.013-.215-.015-.214-.016-.214-.018-.212-.019-.211-.021-.21-.022-.21-.023-.209-.025-.207-.026-.207-.027-.205-.029-.205-.029-.204-.031-.202-.032-.203-.034-.2-.034-.2-.035-.199-.036-.198-.038-.197-.038-.196-.039-.195-.04-.195-.041-.193-.042-.191-.043-.192-.043-.191-.045-.188-.045-.197-.047-.366-.092-.371-.096-.367-.098-.363-.101-.36-.102-.357-.104-.353-.106-.349-.107-.347-.108-.344-.11-.339-.11-.337-.111-.334-.111-.331-.112-.328-.112-.328-.113-.637-.222-.63-.222-.619-.22-.609-.216-.599-.212-.593-.208-.287-.1-.289-.099-.286-.097-.283-.096-.281-.093-.279-.091-.277-.09-.274-.087-.271-.084-.27-.082-.268-.08-.265-.077-.263-.075-.261-.072-.258-.069-.257-.066-.262-.066-.119-.029-.126-.03-.125-.028-.125-.029-.125-.028-.123-.027-.124-.026-.123-.025-.122-.025-.123-.024-.121-.023-.121-.022-.12-.022-.12-.021-.12-.02-.119-.019-.12-.018-.118-.018-.118-.017-.118-.016-.116-.015-.118-.014-.117-.014-.116-.013-.115-.012-.115-.011-.117-.01-.115-.01-.114-.009-.114-.007-.115-.008-.113-.006-.114-.005-.114-.005-.113-.003-.114-.003-.113-.002-.113-.001-.112-.001-.113.001-.113.001-.112.003-.114.003-.112.004-.113.005-.113.006-.113.007-.112.008-.114.009-.113.009-.114.011-.113.012-.114.012-.114.014-.114.014-.115.016-.115.016-.115.018-.116.019-.116.02-.117.02-.117.022-.117.024-.118.024-.119.025-.119.027-.119.028-.121.029-.121.03-.122.032-.121.032-.124.035-.123.035-.148.044-.176.053-.2.058-.2.058-.199.056-.198.056-.198.054-.199.053-.197.052-.198.051-.197.051-.198.049-.197.048-.196.046-.197.046-.197.045-.196.044-.195.043-.196.041-.195.041-.195.039-.195.039-.195.037-.194.036-.195.035-.194.035-.194.033-.192.031-.193.031-.194.03-.193.029-.193.028-.192.026-.192.025-.192.025-.191.023-.192.022-.191.021-.191.02-.19.019-.191.018-.19.017-.19.015-.191.015-.188.013-.189.013-.19.011-.189.01-.187.009-.188.008-.188.006-.189.006-.187.005-.186.003-.187.002-.188.001h-.186l-.185-.001-.186-.002-.186-.003-.185-.005-.184-.005-.186-.007-.184-.007-.183-.009-.184-.01-.184-.012-.183-.012-.182-.013-.182-.015-.183-.015-.182-.017-.181-.018-.181-.019-.18-.02-.181-.022-.18-.022-.18-.024-.179-.024-.178-.026-.179-.027-.178-.028-.178-.029-.178-.031-.175-.031-.177-.032-.177-.034-.175-.035-.176-.035-.174-.037-.174-.038-.175-.039-.173-.041-.173-.041-.173-.042-.172-.044-.171-.044-.172-.046-.171-.047-.17-.048-.169-.048-.169-.05-.17-.052-.168-.052-.167-.053-.168-.054-.166-.055-.166-.056-.166-.058-.165-.058-.164-.06-.164-.06-.163-.062-.163-.062-.163-.064-.162-.064-.161-.066-.161-.066-.16-.068-.158-.068-.159-.069-.159-.071-.157-.071-.157-.073-.156-.073-.156-.074-.155-.075-.154-.076-.155-.077-.153-.078-.152-.079-.152-.08-.152-.081-.151-.082-.149-.081-.149-.084-.149-.084-.149-.085-.147-.086-.146-.087-.147-.088-.145-.088-.146-.09-.143-.089-.143-.091-.143-.092-.142-.092-.142-.094-.151-.101-.269-.183-.277-.194-.274-.197-.272-.2-.268-.202-.266-.205-.263-.208-.261-.212-.258-.213-.255-.217-.252-.218-.25-.222-.247-.223-.245-.226-.242-.23-.239-.231-.237-.233-.234-.235-.231-.238-.229-.24-.226-.242-.224-.244-.221-.246-.219-.249-.217-.25-.213-.252-.212-.254-.21-.256-.207-.258-.204-.259-.202-.26-.2-.264-.198-.265-.195-.266-.193-.268-.191-.269-.189-.272-.187-.273-.184-.273-.183-.276-.18-.277-.179-.28-.176-.28-.174-.281-.173-.283-.17-.285-.169-.286-.166-.286-.165-.289-.163-.289-.161-.291-.159-.293-.157-.293-.156-.295-.154-.296-.152-.297-.15-.298-.149-.299-.147-.301-.145-.302-.144-.303-.142-.304-.141-.304-.139-.307-.137-.307-.136-.308-.134-.31-.133-.31-.131-.311-.13-.312-.129-.314-.127-.314-.125-.314-.124-.316-.123-.318-.121-.317-.12-.318-.119-.321-.117-.32-.116-.321-.114-.322-.114-.323-.112-.323-.111-.325-.109-.325-.108-.326-.108-.328-.105-.327-.105-.327-.103-.329-.103-.33-.101-.331-.1-.33-.098-.332-.098-.332-.097-.333-.095-.334-.094-.333-.094-.335-.092-.336-.091-.335-.09-.336-.09-.338-.087-.337-.087-.337-.087-.339-.085-.339-.084-.339-.083-.34-.082-.34-.081-.34-.08-.342-.079-.341-.079-.342-.077-.342-.077-.342-.075-.343-.075-.343-.074-.344-.072-.343-.073-.344-.071-.344-.07-.345-.07-.345-.068-.345-.068-.345-.067-.345-.067-.345-.065-.346-.066-.35-.126-.688-.124-.692-.121-.692-.118-.693-.115-.693-.112-.692-.11-.692-.107-.693-.105-.691-.102-.691-.099-.69-.097-.689-.094-.688-.093-.687-.09-.687-.088-.684-.085-.683-.084-.681-.082-.68-.079-.678-.078-.675-.076-.674-.074-.671-.072-.668-.071-.667-.068-.656-.028-1.208.067-1.149.063-1.143.061-1.145.059-1.147.057-1.149.054-1.15.052-1.153.049-1.153.048-1.155.045-1.155.043-1.157.04-1.157.038-1.158.036-1.158.034-1.159.032-1.158.029-1.159.027-1.158.025-1.158.023-1.157.02-1.156.019-1.156.016-1.154.014-1.153.012-1.152.01-1.15.007-1.148.006-1.146.003-1.145.002-1.142-.001-1.139-.003-1.137-.005-1.135-.007-1.131-.009-1.129-.011-1.125-.013-1.121-.015-1.119-.017-1.114-.019-1.111-.021-1.107-.023-1.102-.025-1.098-.027-1.093-.029-1.089-.031-1.084-.033-1.078-.035-1.074-.036-1.069-.039-1.062-.04-1.057-.043-1.051-.044-1.045-.046-1.039-.048-1.033-.049-1.026-.052-1.019-.053-1.012-.055-1.005-.057-.998-.059-.991-.06-.983-.063-.975-.064-.968-.065-.959-.068-.951-.069-.943-.07-.934-.073-.926-.074-.916-.076-.907-.077-.898-.079-.888-.081-.879-.082-.869-.083-.859-.086-.848-.087-.839-.088-.827-.09-.817-.091-.806-.093-.794-.094-.784-.096-.772-.097-.763-.049-.372-.049-.372-.05-.37-.05-.366-.05-.363-.05-.36-.052-.357-.051-.354-.051-.35-.052-.347-.052-.344-.053-.341-.053-.338-.053-.333-.053-.331-.054-.327-.054-.324-.054-.32-.054-.316-.055-.314-.055-.31-.055-.306-.055-.302-.056-.298-.056-.295-.056-.291-.056-.287-.056-.284-.057-.279-.057-.277-.057-.271-.057-.268-.057-.264-.057-.259-.057-.255-.058-.251-.057-.248-.058-.243-.057-.238-.058-.234-.058-.23-.057-.225-.058-.22-.057-.217-.057-.21-.057-.207-.057-.202-.057-.197-.056-.192-.056-.187-.056-.181-.055-.177-.056-.172-.054-.166-.053-.159-.053-.155-.053-.15-.052-.144-.051-.138-.05-.131-.048-.125-.048-.12-.046-.113-.045-.106-.043-.1-.041-.093-.04-.086-.037-.079-.034-.071-.033-.064-.029-.057-.019-.035-.073-.067-.115-.104-.121-.107-.128-.111-.133-.113-.139-.116-.144-.118-.15-.121-.156-.123-.162-.126-.167-.127-.172-.13-.178-.132-.184-.134-.188-.135-.194-.137-.199-.139-.204-.141-.21-.142-.214-.144-.22-.145-.224-.147-.23-.148-.234-.15-.239-.151-.245-.152-.248-.153-.253-.154-.259-.156-.263-.158-.268-.158-.272-.159-.276-.16-.282-.161-.285-.162-.291-.164-.294-.164-.299-.165-.304-.166-.307-.167-.312-.168-.316-.169-.321-.17-.324-.17-.329-.171-.333-.173-.337-.172-.341-.174-.346-.175-.349-.175-.353-.176-.357-.176-.361-.177-.365-.179-.369-.178-.373-.18-.377-.18-.38-.18-.385-.182-.388-.182-.392-.182-.395-.184-.4-.184-.403-.184-.406-.185-.411-.186-.413-.186-.418-.187-.421-.187-.424-.188-.428-.188-.432-.189-.435-.19-.438-.19-.443-.19-.445-.191-.449-.192-.452-.192-.455-.192-.459-.193-.462-.194-.466-.194-.468-.194-.472-.195-.475-.195-.478-.196-.482-.196-.485-.196-.488-.197-.491-.198-.494-.198-.497-.198-.5-.199-.503-.199-.506-.199-.507-.199-1.03-.402-1.04-.402-1.051-.404-1.062-.405-1.074-.407-1.085-.408-1.096-.409-1.107-.411-1.118-.411-1.128-.413-1.139-.414-1.15-.416-1.159-.416-1.169-.418-1.179-.418-1.189-.419-1.199-.421-1.208-.421-1.217-.422-1.227-.423-1.235-.424-1.244-.425-1.254-.426-1.261-.426-1.27-.427-1.279-.427-1.287-.429-1.294-.429-1.303-.429-1.31-.43-1.318-.431-1.326-.431-1.332-.431-1.34-.432-1.347-.432-1.354-.433-1.361-.433-1.367-.433-1.374-.434-1.381-.434-1.386-.434-1.393-.434-1.398-.435-1.405-.434-1.41-.435-1.415-.435-1.421-.434-1.427-.435-1.431-.435-1.436-.435-1.442-.434-1.446-.435-1.45-.434-1.455-.435-1.46-.434-1.463-.434-1.468-.433-1.471-.434-1.476-.433-1.478-.433-1.483-.432-1.485-.432-1.489-.432-1.493-.431-1.495-.43-1.497-.431-1.501-.429-1.503-.429-1.505-.429-1.508-.428-1.51-.427-1.512-.426-1.514-.426-1.515-.425-1.517-.425-1.519-.423-1.52-.423-1.521-.422-1.522-.421-1.523-.42-1.524-.419-1.524-.418-1.525-.418-1.526-.416-1.525-.415-1.526-.414-1.526-.413-1.525-.412-1.526-.411-1.524-.409-1.525-.409-1.523-.407-1.523-.406-1.522-.404-1.52-.404-1.52-.401-1.518-.401-1.516-.399-1.515-.398-1.513-.396-1.511-.394-1.51-.394-1.506-.391-1.505-.39-1.502-.389-1.5-.386-1.497-.385-1.494-.384-1.491-.381-1.487-.38-1.485-.379-1.481-.376-1.478-.374-1.474-.373-1.47-.371-1.466-.369-1.462-.367-1.458-.365-1.454-.363-1.449-.36-1.444-.359-1.44-.357-1.435-.355-1.43-.352-1.424-.35-1.42-.349-1.413-.346-1.409-.343-1.402-.342-1.397-.339-1.391-.336-1.385-.335-1.378-.332-1.372-.329-1.366-.327-1.359-.325-1.352-.322-1.345-.319-1.339-.317-1.331-.315-1.323-.311-1.316-.309-1.309-.307-1.301-.304-1.293-.3-1.285-.299-1.277-.295-1.268-.293-1.26-.289-1.252-.287-1.243-.284-1.234-.281-1.225-.278-1.216-.275-1.207-.272-1.197-.269-1.188-.266-1.178-.263-1.169-.26-1.158-.256-1.148-.254-1.139-.25-1.127-.247-1.118-.243-1.107-.24-1.096-.237-1.085-.234-1.074-.23-1.063-.227-1.051-.223-1.04-.22-1.029-.216-1.016-.213-1.005-.209-.993-.206-.98-.202-.969-.198-.956-.195-.943-.19-.93-.188-.918-.183-.904-.18-.891-.175-.878-.172-.864-.168-.851-.164-.837-.16-.823-.157-.808-.152-.795-.148-.78-.144-.765-.14-.75-.135-.736-.132-.72-.127-.705-.123-.689-.119-.674-.115-.658-.11-.641-.106-.626-.101-.608-.097-.592-.092-.575-.088-.557-.084-.54-.079-.521-.074-.242-.033-.246-.033-.25-.032-.256-.032-.261-.032-.266-.031-.271-.031-.276-.03-.28-.03-.286-.029-.29-.029-.295-.028-.299-.028-.304-.027-.309-.027-.313-.027-.318-.025-.322-.025-.327-.025-.331-.024-.335-.024-.339-.023-.344-.023-.348-.022-.352-.021-.357-.021-.36-.02-.365-.02-.369-.019-.372-.019-.377-.018-.381-.018-.385-.017-.385-.016-.793-.031-.804-.03-.819-.026-.835-.025-.849-.022-.864-.02-.879-.018-.892-.016-.907-.014-.92-.011-.934-.009-.948-.008-.961-.004-.974-.003-.987-.001-1 .001z"/></svg>