<svg viewBox="0 0 696 372" xmlns="http://www.w3.org/2000/svg" fill-rule="evenodd" clip-rule="evenodd" stroke-linejoin="round" stroke-miterlimit="1.414"><path d="M385.095 36.738L412.261.096l23.262 42.836 41.88-30.847 7.847 40.507 38.099-31.155 11.383 47.25 41.725-26.796 2.466 47.369 51.372-22.662-15.684 49.537 55.931-8.442-32.405 43.378 57.289 16.231-50.074 38.121 43.513 37.173-62.905-2.242 10.719 49.48-50.312-10.003-2.353 49.64-39.353-28.264-10.553 45.166-33.632-28.952-19.894 49.131-39.259-38.016-14.981 42.758-39.089-35.825-27.01 35.825-24.367-35.825-34.499 35.825-16.901-41.312-35.775 35.134-15.386-42.812-40.017 30.306-7.465-44.03-48.513 26.889-.295-49.003-53.3 22.454 10.29-51.798-67.625 8.155 39.192-50.581L0 184.927l59.891-23.407-32.146-44.074 59.498 6.146-12.312-55.236 53.098 20.535 9.152-53.066 46.731 27.257 15.281-47.295 33.864 33.577 22.074-42.349 29.157 35.176L308.916 0l28.056 35.825L358.599 0l26.496 36.738z"/></svg>